<svg xmlns = "http://www.w3.org/2000/svg" width = "1000" height = "1000">
<g>
<polygon points = "784.742, 633.289 682.877, 573.811 681.017, 573.138 665.847, 570.092 637.102, 607.122 650.339, 654.366 664.612, 679.986 687.111, 694.529 "
fill = "#ffcccc" stroke = "black"/>
</g>
<g>
<polygon points = "918.807, 121.319 900.189, 122.973 869.274, 175.703 1000.000, 247.621 1000.000, 144.419 "
fill = "#ffcccc" stroke = "black"/>
</g>
<g>
<polygon points = "911.797, 673.180 888.294, 759.229 1000.000, 899.888 1000.000, 821.177 "
fill = "#ffcccc" stroke = "black"/>
</g>
<g>
<polygon points = "399.055, 898.229 313.685, 912.667 280.724, 947.855 292.039, 1000.000 397.706, 1000.000 "
fill = "#ffcccc" stroke = "black"/>
</g>
<g>
<polygon points = "631.125, 515.481 526.116, 511.041 540.186, 590.746 637.102, 607.122 665.847, 570.092 "
fill = "#ffcccc" stroke = "black"/>
</g>
<g>
<polygon points = "493.677, 489.238 424.457, 524.717 444.661, 608.693 472.352, 609.773 540.186, 590.746 526.116, 511.041 "
fill = "#ffcccc" stroke = "black"/>
</g>
<g>
<polygon points = "712.806, 875.790 633.395, 873.076 640.055, 974.582 648.400, 1000.000 723.274, 1000.000 "
fill = "#ffcccc" stroke = "black"/>
</g>
<g>
<polygon points = "827.856, 470.119 769.296, 478.337 681.017, 573.138 682.877, 573.811 855.450, 552.916 "
fill = "#ffcccc" stroke = "black"/>
</g>
<g>
<polygon points = "213.409, 169.310 255.293, 212.728 279.398, 222.784 351.682, 155.441 321.509, 78.682 "
fill = "#ffcccc" stroke = "black"/>
</g>
<g>
<polygon points = "835.999, 642.244 843.576, 640.820 877.609, 573.109 855.450, 552.916 682.877, 573.811 784.742, 633.289 "
fill = "#ffcccc" stroke = "black"/>
</g>
<g>
<polygon points = "677.121, 211.944 627.121, 167.560 622.236, 169.053 560.672, 281.339 566.175, 287.243 700.151, 284.841 "
fill = "#ffcccc" stroke = "black"/>
</g>
<g>
<polygon points = "153.162, 500.592 185.774, 448.133 184.984, 427.161 76.851, 437.004 0.000, 489.276 0.000, 507.451 "
fill = "#ffcccc" stroke = "black"/>
</g>
<g>
<polygon points = "918.807, 121.319 1000.000, 144.419 1000.000, 0.000 931.847, 0.000 "
fill = "#ffcccc" stroke = "black"/>
</g>
<g>
<polygon points = "531.232, 676.220 472.352, 609.773 444.661, 608.693 393.595, 633.694 518.243, 756.013 531.684, 755.376 "
fill = "#ffcccc" stroke = "black"/>
</g>
<g>
<polygon points = "293.289, 337.069 308.852, 334.945 372.222, 243.288 359.584, 156.790 351.682, 155.441 279.398, 222.784 "
fill = "#ffcccc" stroke = "black"/>
</g>
<g>
<polygon points = "135.574, 65.052 0.000, 68.065 0.000, 135.999 93.528, 166.664 "
fill = "#ffcccc" stroke = "black"/>
</g>
<g>
<polygon points = "770.379, 881.998 757.535, 849.704 745.157, 844.567 712.806, 875.790 723.274, 1000.000 812.826, 1000.000 "
fill = "#ffcccc" stroke = "black"/>
</g>
<g>
<polygon points = "280.724, 947.855 216.263, 892.929 188.605, 918.895 139.585, 1000.000 292.039, 1000.000 "
fill = "#ffcccc" stroke = "black"/>
</g>
<g>
<polygon points = "131.575, 220.315 0.000, 257.182 0.000, 312.703 62.886, 341.858 142.818, 244.799 "
fill = "#ffcccc" stroke = "black"/>
</g>
<g>
<polygon points = "232.800, 369.050 216.486, 348.012 75.804, 367.461 76.851, 437.004 184.984, 427.161 "
fill = "#ffcccc" stroke = "black"/>
</g>
<g>
<polygon points = "76.851, 437.004 75.804, 367.461 62.886, 341.858 0.000, 312.703 0.000, 489.276 "
fill = "#ffcccc" stroke = "black"/>
</g>
<g>
<polygon points = "562.287, 355.604 720.463, 336.675 737.340, 298.537 700.151, 284.841 566.175, 287.243 553.745, 352.688 "
fill = "#ffcccc" stroke = "black"/>
</g>
<g>
<polygon points = "75.804, 367.461 216.486, 348.012 193.046, 304.994 142.818, 244.799 62.886, 341.858 "
fill = "#ffcccc" stroke = "black"/>
</g>
<g>
<polygon points = "465.804, 417.608 462.525, 416.812 394.156, 421.780 350.211, 451.928 383.299, 498.424 424.457, 524.717 493.677, 489.238 "
fill = "#ffcccc" stroke = "black"/>
</g>
<g>
<polygon points = "957.176, 562.511 877.609, 573.109 843.576, 640.820 914.131, 662.192 1000.000, 601.982 1000.000, 576.969 "
fill = "#ffcccc" stroke = "black"/>
</g>
<g>
<polygon points = "125.343, 564.053 0.414, 582.427 91.551, 704.835 138.131, 600.364 "
fill = "#ffcccc" stroke = "black"/>
</g>
<g>
<polygon points = "844.138, 427.371 832.455, 383.710 722.265, 406.157 681.537, 444.864 769.296, 478.337 827.856, 470.119 "
fill = "#ffcccc" stroke = "black"/>
</g>
<g>
<polygon points = "342.626, 648.689 440.844, 775.502 446.926, 776.015 518.243, 756.013 393.595, 633.694 "
fill = "#ffcccc" stroke = "black"/>
</g>
<g>
<polygon points = "361.217, 358.388 475.792, 283.343 450.710, 260.539 372.222, 243.288 308.852, 334.945 "
fill = "#ffcccc" stroke = "black"/>
</g>
<g>
<polygon points = "514.603, 910.442 511.864, 903.010 411.485, 877.701 399.055, 898.229 397.706, 1000.000 454.482, 1000.000 "
fill = "#ffcccc" stroke = "black"/>
</g>
<g>
<polygon points = "821.456, 221.698 821.129, 228.781 829.932, 261.972 974.928, 267.448 1000.000, 266.731 1000.000, 247.621 869.274, 175.703 "
fill = "#ffcccc" stroke = "black"/>
</g>
<g>
<polygon points = "873.583, 364.215 838.871, 356.204 832.455, 383.710 844.138, 427.371 903.492, 471.919 995.509, 404.911 "
fill = "#ffcccc" stroke = "black"/>
</g>
<g>
<polygon points = "522.710, 271.601 484.687, 284.419 462.525, 416.812 465.804, 417.608 514.727, 408.421 553.745, 352.688 566.175, 287.243 560.672, 281.339 "
fill = "#ffcccc" stroke = "black"/>
</g>
<g>
<polygon points = "341.334, 776.092 322.243, 670.951 236.968, 795.817 314.986, 864.570 "
fill = "#ffcccc" stroke = "black"/>
</g>
<g>
<polygon points = "838.871, 356.204 810.438, 299.636 737.340, 298.537 720.463, 336.675 722.265, 406.157 832.455, 383.710 "
fill = "#ffcccc" stroke = "black"/>
</g>
<g>
<polygon points = "287.611, 550.610 295.154, 499.607 185.774, 448.133 153.162, 500.592 152.783, 540.180 "
fill = "#ffcccc" stroke = "black"/>
</g>
<g>
<polygon points = "129.759, 212.478 93.528, 166.664 0.000, 135.999 0.000, 257.182 131.575, 220.315 "
fill = "#ffcccc" stroke = "black"/>
</g>
<g>
<polygon points = "315.390, 53.063 321.509, 78.682 351.682, 155.441 359.584, 156.790 407.288, 124.216 393.953, 0.000 353.936, 0.000 "
fill = "#ffcccc" stroke = "black"/>
</g>
<g>
<polygon points = "314.986, 864.570 236.968, 795.817 207.628, 826.446 216.263, 892.929 280.724, 947.855 313.685, 912.667 "
fill = "#ffcccc" stroke = "black"/>
</g>
<g>
<polygon points = "407.288, 124.216 448.829, 127.728 487.744, 114.979 484.731, 58.238 466.160, 0.000 393.953, 0.000 "
fill = "#ffcccc" stroke = "black"/>
</g>
<g>
<polygon points = "191.684, 811.747 183.230, 727.646 92.074, 707.521 67.984, 756.663 99.197, 811.444 "
fill = "#ffcccc" stroke = "black"/>
</g>
<g>
<polygon points = "676.564, 447.304 681.537, 444.864 722.265, 406.157 720.463, 336.675 562.287, 355.604 "
fill = "#ffcccc" stroke = "black"/>
</g>
<g>
<polygon points = "810.915, 211.289 807.029, 27.793 700.254, 131.985 "
fill = "#ffcccc" stroke = "black"/>
</g>
<g>
<polygon points = "581.103, 772.981 617.424, 824.861 719.472, 753.736 687.111, 694.529 664.612, 679.986 "
fill = "#ffcccc" stroke = "black"/>
</g>
<g>
<polygon points = "323.911, 665.677 337.247, 647.094 329.153, 630.383 299.110, 582.365 199.413, 625.225 211.146, 701.008 "
fill = "#ffcccc" stroke = "black"/>
</g>
<g>
<polygon points = "89.704, 847.886 99.197, 811.444 67.984, 756.663 0.000, 762.497 0.000, 896.320 "
fill = "#ffcccc" stroke = "black"/>
</g>
<g>
<polygon points = "721.549, 755.021 719.472, 753.736 617.424, 824.861 618.922, 850.569 633.395, 873.076 712.806, 875.790 745.157, 844.567 "
fill = "#ffcccc" stroke = "black"/>
</g>
<g>
<polygon points = "674.930, 126.038 700.254, 131.985 807.029, 27.793 808.363, 25.532 799.035, 0.000 702.254, 0.000 "
fill = "#ffcccc" stroke = "black"/>
</g>
<g>
<polygon points = "67.984, 756.663 92.074, 707.521 91.551, 704.835 0.414, 582.427 0.000, 582.329 0.000, 762.497 "
fill = "#ffcccc" stroke = "black"/>
</g>
<g>
<polygon points = "907.332, 890.490 876.224, 775.317 871.740, 775.583 757.535, 849.704 770.379, 881.998 "
fill = "#ffcccc" stroke = "black"/>
</g>
<g>
<polygon points = "507.512, 134.981 487.744, 114.979 448.829, 127.728 450.710, 260.539 475.792, 283.343 484.687, 284.419 522.710, 271.601 "
fill = "#ffcccc" stroke = "black"/>
</g>
<g>
<polygon points = "640.055, 974.582 514.603, 910.442 454.482, 1000.000 648.400, 1000.000 "
fill = "#ffcccc" stroke = "black"/>
</g>
<g>
<polygon points = "995.509, 404.911 903.492, 471.919 957.176, 562.511 1000.000, 576.969 1000.000, 405.516 "
fill = "#ffcccc" stroke = "black"/>
</g>
<g>
<polygon points = "484.731, 58.238 487.744, 114.979 507.512, 134.981 622.236, 169.053 627.121, 167.560 649.361, 136.523 614.879, 99.889 "
fill = "#ffcccc" stroke = "black"/>
</g>
<g>
<polygon points = "793.728, 728.456 871.740, 775.583 876.224, 775.317 888.294, 759.229 911.797, 673.180 914.131, 662.192 843.576, 640.820 835.999, 642.244 "
fill = "#ffcccc" stroke = "black"/>
</g>
<g>
<polygon points = "411.485, 877.701 420.831, 821.497 341.334, 776.092 314.986, 864.570 313.685, 912.667 399.055, 898.229 "
fill = "#ffcccc" stroke = "black"/>
</g>
<g>
<polygon points = "614.879, 99.889 649.361, 136.523 674.930, 126.038 702.254, 0.000 598.222, 0.000 "
fill = "#ffcccc" stroke = "black"/>
</g>
<g>
<polygon points = "908.454, 894.262 842.414, 1000.000 1000.000, 1000.000 1000.000, 963.482 "
fill = "#ffcccc" stroke = "black"/>
</g>
<g>
<polygon points = "295.154, 499.607 320.330, 456.929 255.494, 369.973 232.800, 369.050 184.984, 427.161 185.774, 448.133 "
fill = "#ffcccc" stroke = "black"/>
</g>
<g>
<polygon points = "681.537, 444.864 676.564, 447.304 627.798, 491.214 631.125, 515.481 665.847, 570.092 681.017, 573.138 769.296, 478.337 "
fill = "#ffcccc" stroke = "black"/>
</g>
<g>
<polygon points = "627.798, 491.214 514.727, 408.421 465.804, 417.608 493.677, 489.238 526.116, 511.041 631.125, 515.481 "
fill = "#ffcccc" stroke = "black"/>
</g>
<g>
<polygon points = "507.512, 134.981 522.710, 271.601 560.672, 281.339 622.236, 169.053 "
fill = "#ffcccc" stroke = "black"/>
</g>
<g>
<polygon points = "719.472, 753.736 721.549, 755.021 793.728, 728.456 835.999, 642.244 784.742, 633.289 687.111, 694.529 "
fill = "#ffcccc" stroke = "black"/>
</g>
<g>
<polygon points = "383.299, 498.424 329.153, 630.383 337.247, 647.094 342.626, 648.689 393.595, 633.694 444.661, 608.693 424.457, 524.717 "
fill = "#ffcccc" stroke = "black"/>
</g>
<g>
<polygon points = "448.829, 127.728 407.288, 124.216 359.584, 156.790 372.222, 243.288 450.710, 260.539 "
fill = "#ffcccc" stroke = "black"/>
</g>
<g>
<polygon points = "540.186, 590.746 472.352, 609.773 531.232, 676.220 650.339, 654.366 637.102, 607.122 "
fill = "#ffcccc" stroke = "black"/>
</g>
<g>
<polygon points = "157.481, 39.607 179.728, 60.386 315.390, 53.063 353.936, 0.000 148.952, 0.000 "
fill = "#ffcccc" stroke = "black"/>
</g>
<g>
<polygon points = "420.831, 821.497 411.485, 877.701 511.864, 903.010 546.238, 853.191 446.926, 776.015 440.844, 775.502 "
fill = "#ffcccc" stroke = "black"/>
</g>
<g>
<polygon points = "914.131, 662.192 911.797, 673.180 1000.000, 821.177 1000.000, 601.982 "
fill = "#ffcccc" stroke = "black"/>
</g>
<g>
<polygon points = "420.831, 821.497 440.844, 775.502 342.626, 648.689 337.247, 647.094 323.911, 665.677 322.243, 670.951 341.334, 776.092 "
fill = "#ffcccc" stroke = "black"/>
</g>
<g>
<polygon points = "194.072, 154.579 129.759, 212.478 131.575, 220.315 142.818, 244.799 193.046, 304.994 255.293, 212.728 213.409, 169.310 "
fill = "#ffcccc" stroke = "black"/>
</g>
<g>
<polygon points = "677.121, 211.944 700.151, 284.841 737.340, 298.537 810.438, 299.636 829.932, 261.972 821.129, 228.781 "
fill = "#ffcccc" stroke = "black"/>
</g>
<g>
<polygon points = "808.363, 25.532 807.029, 27.793 810.915, 211.289 821.456, 221.698 869.274, 175.703 900.189, 122.973 "
fill = "#ffcccc" stroke = "black"/>
</g>
<g>
<polygon points = "255.494, 369.973 320.330, 456.929 350.211, 451.928 394.156, 421.780 361.217, 358.388 308.852, 334.945 293.289, 337.069 "
fill = "#ffcccc" stroke = "black"/>
</g>
<g>
<polygon points = "92.789, 870.367 89.704, 847.886 0.000, 896.320 0.000, 1000.000 63.454, 1000.000 "
fill = "#ffcccc" stroke = "black"/>
</g>
<g>
<polygon points = "546.238, 853.191 618.922, 850.569 617.424, 824.861 581.103, 772.981 531.684, 755.376 518.243, 756.013 446.926, 776.015 "
fill = "#ffcccc" stroke = "black"/>
</g>
<g>
<polygon points = "974.928, 267.448 873.583, 364.215 995.509, 404.911 1000.000, 405.516 1000.000, 266.731 "
fill = "#ffcccc" stroke = "black"/>
</g>
<g>
<polygon points = "888.294, 759.229 876.224, 775.317 907.332, 890.490 908.454, 894.262 1000.000, 963.482 1000.000, 899.888 "
fill = "#ffcccc" stroke = "black"/>
</g>
<g>
<polygon points = "394.156, 421.780 462.525, 416.812 484.687, 284.419 475.792, 283.343 361.217, 358.388 "
fill = "#ffcccc" stroke = "black"/>
</g>
<g>
<polygon points = "383.299, 498.424 350.211, 451.928 320.330, 456.929 295.154, 499.607 287.611, 550.610 299.110, 582.365 329.153, 630.383 "
fill = "#ffcccc" stroke = "black"/>
</g>
<g>
<polygon points = "484.731, 58.238 614.879, 99.889 598.222, 0.000 466.160, 0.000 "
fill = "#ffcccc" stroke = "black"/>
</g>
<g>
<polygon points = "808.363, 25.532 900.189, 122.973 918.807, 121.319 931.847, 0.000 799.035, 0.000 "
fill = "#ffcccc" stroke = "black"/>
</g>
<g>
<polygon points = "0.000, 68.065 135.574, 65.052 157.481, 39.607 148.952, 0.000 0.000, 0.000 "
fill = "#ffcccc" stroke = "black"/>
</g>
<g>
<polygon points = "0.414, 582.427 125.343, 564.053 152.783, 540.180 153.162, 500.592 0.000, 507.451 0.000, 582.329 "
fill = "#ffcccc" stroke = "black"/>
</g>
<g>
<polygon points = "640.055, 974.582 633.395, 873.076 618.922, 850.569 546.238, 853.191 511.864, 903.010 514.603, 910.442 "
fill = "#ffcccc" stroke = "black"/>
</g>
<g>
<polygon points = "903.492, 471.919 844.138, 427.371 827.856, 470.119 855.450, 552.916 877.609, 573.109 957.176, 562.511 "
fill = "#ffcccc" stroke = "black"/>
</g>
<g>
<polygon points = "255.494, 369.973 293.289, 337.069 279.398, 222.784 255.293, 212.728 193.046, 304.994 216.486, 348.012 232.800, 369.050 "
fill = "#ffcccc" stroke = "black"/>
</g>
<g>
<polygon points = "627.798, 491.214 676.564, 447.304 562.287, 355.604 553.745, 352.688 514.727, 408.421 "
fill = "#ffcccc" stroke = "black"/>
</g>
<g>
<polygon points = "207.628, 826.446 191.684, 811.747 99.197, 811.444 89.704, 847.886 92.789, 870.367 188.605, 918.895 216.263, 892.929 "
fill = "#ffcccc" stroke = "black"/>
</g>
<g>
<polygon points = "92.789, 870.367 63.454, 1000.000 139.585, 1000.000 188.605, 918.895 "
fill = "#ffcccc" stroke = "black"/>
</g>
<g>
<polygon points = "211.146, 701.008 199.413, 625.225 138.131, 600.364 91.551, 704.835 92.074, 707.521 183.230, 727.646 "
fill = "#ffcccc" stroke = "black"/>
</g>
<g>
<polygon points = "974.928, 267.448 829.932, 261.972 810.438, 299.636 838.871, 356.204 873.583, 364.215 "
fill = "#ffcccc" stroke = "black"/>
</g>
<g>
<polygon points = "908.454, 894.262 907.332, 890.490 770.379, 881.998 812.826, 1000.000 842.414, 1000.000 "
fill = "#ffcccc" stroke = "black"/>
</g>
<g>
<polygon points = "810.915, 211.289 700.254, 131.985 674.930, 126.038 649.361, 136.523 627.121, 167.560 677.121, 211.944 821.129, 228.781 821.456, 221.698 "
fill = "#ffcccc" stroke = "black"/>
</g>
<g>
<polygon points = "199.413, 625.225 299.110, 582.365 287.611, 550.610 152.783, 540.180 125.343, 564.053 138.131, 600.364 "
fill = "#ffcccc" stroke = "black"/>
</g>
<g>
<polygon points = "323.911, 665.677 211.146, 701.008 183.230, 727.646 191.684, 811.747 207.628, 826.446 236.968, 795.817 322.243, 670.951 "
fill = "#ffcccc" stroke = "black"/>
</g>
<g>
<polygon points = "179.728, 60.386 157.481, 39.607 135.574, 65.052 93.528, 166.664 129.759, 212.478 194.072, 154.579 "
fill = "#ffcccc" stroke = "black"/>
</g>
<g>
<polygon points = "721.549, 755.021 745.157, 844.567 757.535, 849.704 871.740, 775.583 793.728, 728.456 "
fill = "#ffcccc" stroke = "black"/>
</g>
<g>
<polygon points = "531.232, 676.220 531.684, 755.376 581.103, 772.981 664.612, 679.986 650.339, 654.366 "
fill = "#ffcccc" stroke = "black"/>
</g>
<g>
<polygon points = "179.728, 60.386 194.072, 154.579 213.409, 169.310 321.509, 78.682 315.390, 53.063 "
fill = "#ffcccc" stroke = "black"/>
</g>
</svg>
