<svg xmlns = "http://www.w3.org/2000/svg" width = "1000" height = "1000">
<g>
<polygon points = "642.873, 954.585 679.082, 891.956 685.100, 837.429 588.244, 795.972 564.262, 793.512 531.962, 829.706 524.643, 844.603 534.704, 1000.000 606.794, 1000.000 "
fill = "#ffcccc" stroke = "black"/>
</g>
<g>
<polygon points = "537.107, 429.983 537.040, 431.365 538.115, 431.076 "
fill = "#ffcccc" stroke = "black"/>
</g>
<g>
<polygon points = "358.672, 396.813 290.285, 453.964 298.372, 463.701 352.956, 436.034 "
fill = "#ffcccc" stroke = "black"/>
</g>
<g>
<polygon points = "972.727, 660.150 854.375, 683.516 839.231, 711.486 853.630, 723.496 "
fill = "#ffcccc" stroke = "black"/>
</g>
<g>
<polygon points = ""
fill = "#ffcccc" stroke = "black"/>
</g>
<g>
<polygon points = ""
fill = "#ffcccc" stroke = "black"/>
</g>
<g>
<polygon points = ""
fill = "#ffcccc" stroke = "black"/>
</g>
<g>
<polygon points = "852.659, 898.310 853.630, 723.496 839.231, 711.486 831.128, 712.578 769.755, 845.442 783.171, 862.244 "
fill = "#ffcccc" stroke = "black"/>
</g>
<g>
<polygon points = ""
fill = "#ffcccc" stroke = "black"/>
</g>
<g>
<polygon points = "0.000, 121.636 82.291, 86.318 160.950, 0.000 0.000, 0.000 "
fill = "#ffcccc" stroke = "black"/>
</g>
<g>
<polygon points = "235.282, 477.865 257.500, 594.309 286.133, 588.456 315.158, 543.662 298.372, 463.701 290.285, 453.964 263.118, 440.071 "
fill = "#ffcccc" stroke = "black"/>
</g>
<g>
<polygon points = "302.700, 178.484 216.670, 215.144 199.096, 246.694 295.769, 230.855 "
fill = "#ffcccc" stroke = "black"/>
</g>
<g>
<polygon points = "946.447, 622.141 848.638, 655.427 854.375, 683.516 972.727, 660.150 981.866, 656.593 "
fill = "#ffcccc" stroke = "black"/>
</g>
<g>
<polygon points = "848.638, 655.427 781.956, 630.201 776.722, 658.275 796.638, 698.011 831.128, 712.578 839.231, 711.486 854.375, 683.516 "
fill = "#ffcccc" stroke = "black"/>
</g>
<g>
<polygon points = "49.921, 345.364 123.616, 348.458 168.930, 306.366 163.872, 270.348 0.000, 161.565 0.000, 231.181 "
fill = "#ffcccc" stroke = "black"/>
</g>
<g>
<polygon points = "717.583, 802.835 721.384, 811.505 769.755, 845.442 831.128, 712.578 796.638, 698.011 718.467, 764.621 "
fill = "#ffcccc" stroke = "black"/>
</g>
<g>
<polygon points = ""
fill = "#ffcccc" stroke = "black"/>
</g>
<g>
<polygon points = "209.221, 693.551 214.594, 618.865 57.691, 671.087 53.948, 674.281 68.192, 691.538 "
fill = "#ffcccc" stroke = "black"/>
</g>
<g>
<polygon points = ""
fill = "#ffcccc" stroke = "black"/>
</g>
<g>
<polygon points = "762.516, 871.868 783.171, 862.244 769.755, 845.442 721.384, 811.505 685.100, 837.429 679.082, 891.956 "
fill = "#ffcccc" stroke = "black"/>
</g>
<g>
<polygon points = ""
fill = "#ffcccc" stroke = "black"/>
</g>
<g>
<polygon points = ""
fill = "#ffcccc" stroke = "black"/>
</g>
<g>
<polygon points = "453.272, 689.450 442.479, 627.544 394.461, 666.104 "
fill = "#ffcccc" stroke = "black"/>
</g>
<g>
<polygon points = ""
fill = "#ffcccc" stroke = "black"/>
</g>
<g>
<polygon points = ""
fill = "#ffcccc" stroke = "black"/>
</g>
<g>
<polygon points = ""
fill = "#ffcccc" stroke = "black"/>
</g>
<g>
<polygon points = "340.593, 676.054 394.461, 666.104 442.479, 627.544 460.877, 566.577 458.390, 562.865 315.158, 543.662 286.133, 588.456 "
fill = "#ffcccc" stroke = "black"/>
</g>
<g>
<polygon points = "680.143, 689.830 718.467, 764.621 796.638, 698.011 776.722, 658.275 "
fill = "#ffcccc" stroke = "black"/>
</g>
<g>
<polygon points = "665.676, 780.954 717.583, 802.835 718.467, 764.621 680.143, 689.830 670.716, 683.415 "
fill = "#ffcccc" stroke = "black"/>
</g>
<g>
<polygon points = ""
fill = "#ffcccc" stroke = "black"/>
</g>
<g>
<polygon points = "844.150, 281.352 830.026, 283.701 785.027, 304.395 814.933, 335.694 840.080, 296.460 "
fill = "#ffcccc" stroke = "black"/>
</g>
<g>
<polygon points = "172.929, 310.474 374.185, 304.695 366.254, 274.844 295.769, 230.855 199.096, 246.694 163.872, 270.348 168.930, 306.366 "
fill = "#ffcccc" stroke = "black"/>
</g>
<g>
<polygon points = "49.921, 345.364 0.000, 231.181 0.000, 365.490 "
fill = "#ffcccc" stroke = "black"/>
</g>
<g>
<polygon points = "880.748, 481.678 878.132, 469.010 859.474, 483.183 "
fill = "#ffcccc" stroke = "black"/>
</g>
<g>
<polygon points = ""
fill = "#ffcccc" stroke = "black"/>
</g>
<g>
<polygon points = "352.956, 436.034 298.372, 463.701 315.158, 543.662 458.390, 562.865 465.686, 516.906 "
fill = "#ffcccc" stroke = "black"/>
</g>
<g>
<polygon points = "776.622, 621.007 657.454, 668.135 670.716, 683.415 680.143, 689.830 776.722, 658.275 781.956, 630.201 "
fill = "#ffcccc" stroke = "black"/>
</g>
<g>
<polygon points = "688.024, 207.693 646.563, 210.999 638.765, 264.073 670.375, 279.871 "
fill = "#ffcccc" stroke = "black"/>
</g>
<g>
<polygon points = "123.094, 838.697 68.192, 691.538 53.948, 674.281 0.000, 671.926 0.000, 892.781 "
fill = "#ffcccc" stroke = "black"/>
</g>
<g>
<polygon points = "762.516, 871.868 679.082, 891.956 642.873, 954.585 "
fill = "#ffcccc" stroke = "black"/>
</g>
<g>
<polygon points = "721.384, 811.505 717.583, 802.835 665.676, 780.954 588.244, 795.972 685.100, 837.429 "
fill = "#ffcccc" stroke = "black"/>
</g>
<g>
<polygon points = "575.247, 295.288 638.340, 264.079 575.809, 249.432 "
fill = "#ffcccc" stroke = "black"/>
</g>
<g>
<polygon points = "0.000, 959.815 0.000, 1000.000 33.764, 1000.000 "
fill = "#ffcccc" stroke = "black"/>
</g>
<g>
<polygon points = "312.621, 745.832 340.593, 676.054 286.133, 588.456 257.500, 594.309 214.594, 618.865 209.221, 693.551 "
fill = "#ffcccc" stroke = "black"/>
</g>
<g>
<polygon points = "851.828, 371.241 863.992, 339.310 840.080, 296.460 814.933, 335.694 817.989, 352.753 "
fill = "#ffcccc" stroke = "black"/>
</g>
<g>
<polygon points = "246.619, 948.390 269.792, 998.939 369.037, 807.482 313.466, 752.298 "
fill = "#ffcccc" stroke = "black"/>
</g>
<g>
<polygon points = "898.957, 297.365 871.469, 276.841 846.453, 279.559 844.150, 281.352 840.080, 296.460 863.992, 339.310 "
fill = "#ffcccc" stroke = "black"/>
</g>
<g>
<polygon points = "368.938, 377.406 376.641, 309.037 374.185, 304.695 172.929, 310.474 263.118, 440.071 290.285, 453.964 358.672, 396.813 "
fill = "#ffcccc" stroke = "black"/>
</g>
<g>
<polygon points = "188.406, 113.167 82.291, 86.318 0.000, 121.636 0.000, 161.565 163.872, 270.348 199.096, 246.694 216.670, 215.144 "
fill = "#ffcccc" stroke = "black"/>
</g>
<g>
<polygon points = ""
fill = "#ffcccc" stroke = "black"/>
</g>
<g>
<polygon points = "714.670, 158.050 640.356, 177.006 646.563, 210.999 688.024, 207.693 "
fill = "#ffcccc" stroke = "black"/>
</g>
<g>
<polygon points = "82.291, 86.318 188.406, 113.167 187.365, 0.000 160.950, 0.000 "
fill = "#ffcccc" stroke = "black"/>
</g>
<g>
<polygon points = "744.389, 515.232 714.253, 497.258 685.355, 505.892 654.777, 666.069 657.454, 668.135 776.622, 621.007 "
fill = "#ffcccc" stroke = "black"/>
</g>
<g>
<polygon points = "516.302, 107.029 559.736, 145.718 550.339, 72.852 "
fill = "#ffcccc" stroke = "black"/>
</g>
<g>
<polygon points = "936.292, 199.556 871.469, 276.841 898.957, 297.365 958.635, 302.290 1000.000, 270.509 1000.000, 214.805 "
fill = "#ffcccc" stroke = "black"/>
</g>
<g>
<polygon points = "981.866, 656.593 972.727, 660.150 853.630, 723.496 852.659, 898.310 957.601, 1000.000 1000.000, 1000.000 1000.000, 661.685 "
fill = "#ffcccc" stroke = "black"/>
</g>
<g>
<polygon points = "884.422, 434.999 878.132, 469.010 880.748, 481.678 915.619, 507.267 1000.000, 436.938 1000.000, 420.468 "
fill = "#ffcccc" stroke = "black"/>
</g>
<g>
<polygon points = "465.686, 516.906 458.390, 562.865 460.877, 566.577 534.569, 573.828 639.719, 497.572 580.840, 444.128 538.115, 431.076 537.040, 431.365 "
fill = "#ffcccc" stroke = "black"/>
</g>
<g>
<polygon points = "866.312, 106.062 867.582, 102.175 858.319, 0.000 736.162, 0.000 "
fill = "#ffcccc" stroke = "black"/>
</g>
<g>
<polygon points = "622.299, 155.564 567.989, 160.385 551.152, 232.806 575.809, 249.432 638.340, 264.079 638.765, 264.073 646.563, 210.999 640.356, 177.006 "
fill = "#ffcccc" stroke = "black"/>
</g>
<g>
<polygon points = "958.635, 302.290 1000.000, 412.444 1000.000, 270.509 "
fill = "#ffcccc" stroke = "black"/>
</g>
<g>
<polygon points = "340.584, 125.249 387.764, 101.905 377.714, 0.000 282.464, 0.000 "
fill = "#ffcccc" stroke = "black"/>
</g>
<g>
<polygon points = "550.339, 72.852 559.736, 145.718 567.989, 160.385 622.299, 155.564 624.961, 0.000 595.068, 0.000 "
fill = "#ffcccc" stroke = "black"/>
</g>
<g>
<polygon points = "817.989, 352.753 814.933, 335.694 785.027, 304.395 686.531, 299.469 685.998, 328.291 723.286, 432.040 "
fill = "#ffcccc" stroke = "black"/>
</g>
<g>
<polygon points = "836.561, 244.968 830.026, 283.701 844.150, 281.352 846.453, 279.559 "
fill = "#ffcccc" stroke = "black"/>
</g>
<g>
<polygon points = "665.676, 780.954 670.716, 683.415 657.454, 668.135 654.777, 666.069 629.995, 664.810 547.196, 743.926 564.262, 793.512 588.244, 795.972 "
fill = "#ffcccc" stroke = "black"/>
</g>
<g>
<polygon points = "57.691, 671.087 214.594, 618.865 257.500, 594.309 235.282, 477.865 111.178, 511.838 "
fill = "#ffcccc" stroke = "black"/>
</g>
<g>
<polygon points = "865.429, 118.032 823.115, 158.090 836.561, 244.968 846.453, 279.559 871.469, 276.841 936.292, 199.556 "
fill = "#ffcccc" stroke = "black"/>
</g>
<g>
<polygon points = "622.299, 155.564 640.356, 177.006 714.670, 158.050 715.102, 157.575 675.071, 0.000 624.961, 0.000 "
fill = "#ffcccc" stroke = "black"/>
</g>
<g>
<polygon points = "639.719, 497.572 534.569, 573.828 629.995, 664.810 654.777, 666.069 685.355, 505.892 "
fill = "#ffcccc" stroke = "black"/>
</g>
<g>
<polygon points = "580.840, 444.128 639.719, 497.572 685.355, 505.892 714.253, 497.258 723.286, 432.040 685.998, 328.291 "
fill = "#ffcccc" stroke = "black"/>
</g>
<g>
<polygon points = "172.929, 310.474 168.930, 306.366 123.616, 348.458 91.162, 440.993 111.178, 511.838 235.282, 477.865 263.118, 440.071 "
fill = "#ffcccc" stroke = "black"/>
</g>
<g>
<polygon points = "91.162, 440.993 123.616, 348.458 49.921, 345.364 0.000, 365.490 0.000, 461.617 "
fill = "#ffcccc" stroke = "black"/>
</g>
<g>
<polygon points = "575.247, 295.288 575.809, 249.432 551.152, 232.806 536.728, 233.146 478.605, 319.947 522.042, 365.288 "
fill = "#ffcccc" stroke = "black"/>
</g>
<g>
<polygon points = "445.413, 136.591 452.425, 186.665 536.728, 233.146 551.152, 232.806 567.989, 160.385 559.736, 145.718 516.302, 107.029 "
fill = "#ffcccc" stroke = "black"/>
</g>
<g>
<polygon points = "451.826, 877.133 401.652, 1000.000 534.704, 1000.000 524.643, 844.603 "
fill = "#ffcccc" stroke = "black"/>
</g>
<g>
<polygon points = "111.178, 511.838 91.162, 440.993 0.000, 461.617 0.000, 671.926 53.948, 674.281 57.691, 671.087 "
fill = "#ffcccc" stroke = "black"/>
</g>
<g>
<polygon points = "452.425, 186.665 445.413, 136.591 387.764, 101.905 340.584, 125.249 302.700, 178.484 295.769, 230.855 366.254, 274.844 "
fill = "#ffcccc" stroke = "black"/>
</g>
<g>
<polygon points = "522.042, 365.288 478.605, 319.947 376.641, 309.037 368.938, 377.406 522.624, 392.446 "
fill = "#ffcccc" stroke = "black"/>
</g>
<g>
<polygon points = "451.826, 877.133 389.108, 806.253 369.037, 807.482 269.792, 998.939 270.059, 1000.000 401.652, 1000.000 "
fill = "#ffcccc" stroke = "black"/>
</g>
<g>
<polygon points = "389.108, 806.253 429.746, 773.319 459.257, 698.439 453.272, 689.450 394.461, 666.104 340.593, 676.054 312.621, 745.832 313.466, 752.298 369.037, 807.482 "
fill = "#ffcccc" stroke = "black"/>
</g>
<g>
<polygon points = "852.659, 898.310 783.171, 862.244 762.516, 871.868 642.873, 954.585 606.794, 1000.000 957.601, 1000.000 "
fill = "#ffcccc" stroke = "black"/>
</g>
<g>
<polygon points = "714.253, 497.258 744.389, 515.232 859.474, 483.183 878.132, 469.010 884.422, 434.999 851.828, 371.241 817.989, 352.753 723.286, 432.040 "
fill = "#ffcccc" stroke = "black"/>
</g>
<g>
<polygon points = "522.624, 392.446 368.938, 377.406 358.672, 396.813 352.956, 436.034 465.686, 516.906 537.040, 431.365 537.107, 429.983 "
fill = "#ffcccc" stroke = "black"/>
</g>
<g>
<polygon points = "915.619, 507.267 946.447, 622.141 981.866, 656.593 1000.000, 661.685 1000.000, 436.938 "
fill = "#ffcccc" stroke = "black"/>
</g>
<g>
<polygon points = "269.792, 998.939 246.619, 948.390 123.094, 838.697 0.000, 892.781 0.000, 959.815 33.764, 1000.000 270.059, 1000.000 "
fill = "#ffcccc" stroke = "black"/>
</g>
<g>
<polygon points = "580.840, 444.128 685.998, 328.291 686.531, 299.469 670.375, 279.871 638.765, 264.073 638.340, 264.079 575.247, 295.288 522.042, 365.288 522.624, 392.446 537.107, 429.983 538.115, 431.076 "
fill = "#ffcccc" stroke = "black"/>
</g>
<g>
<polygon points = "246.619, 948.390 313.466, 752.298 312.621, 745.832 209.221, 693.551 68.192, 691.538 123.094, 838.697 "
fill = "#ffcccc" stroke = "black"/>
</g>
<g>
<polygon points = "958.635, 302.290 898.957, 297.365 863.992, 339.310 851.828, 371.241 884.422, 434.999 1000.000, 420.468 1000.000, 412.444 "
fill = "#ffcccc" stroke = "black"/>
</g>
<g>
<polygon points = "478.605, 319.947 536.728, 233.146 452.425, 186.665 366.254, 274.844 374.185, 304.695 376.641, 309.037 "
fill = "#ffcccc" stroke = "black"/>
</g>
<g>
<polygon points = "915.619, 507.267 880.748, 481.678 859.474, 483.183 744.389, 515.232 776.622, 621.007 781.956, 630.201 848.638, 655.427 946.447, 622.141 "
fill = "#ffcccc" stroke = "black"/>
</g>
<g>
<polygon points = "867.582, 102.175 1000.000, 66.591 1000.000, 0.000 858.319, 0.000 "
fill = "#ffcccc" stroke = "black"/>
</g>
<g>
<polygon points = "715.102, 157.575 823.115, 158.090 865.429, 118.032 866.312, 106.062 736.162, 0.000 675.071, 0.000 "
fill = "#ffcccc" stroke = "black"/>
</g>
<g>
<polygon points = "459.257, 698.439 547.196, 743.926 629.995, 664.810 534.569, 573.828 460.877, 566.577 442.479, 627.544 453.272, 689.450 "
fill = "#ffcccc" stroke = "black"/>
</g>
<g>
<polygon points = "547.196, 743.926 459.257, 698.439 429.746, 773.319 531.962, 829.706 564.262, 793.512 "
fill = "#ffcccc" stroke = "black"/>
</g>
<g>
<polygon points = "387.764, 101.905 445.413, 136.591 516.302, 107.029 550.339, 72.852 595.068, 0.000 377.714, 0.000 "
fill = "#ffcccc" stroke = "black"/>
</g>
<g>
<polygon points = "867.582, 102.175 866.312, 106.062 865.429, 118.032 936.292, 199.556 1000.000, 214.805 1000.000, 66.591 "
fill = "#ffcccc" stroke = "black"/>
</g>
<g>
<polygon points = "429.746, 773.319 389.108, 806.253 451.826, 877.133 524.643, 844.603 531.962, 829.706 "
fill = "#ffcccc" stroke = "black"/>
</g>
<g>
<polygon points = "836.561, 244.968 823.115, 158.090 715.102, 157.575 714.670, 158.050 688.024, 207.693 670.375, 279.871 686.531, 299.469 785.027, 304.395 830.026, 283.701 "
fill = "#ffcccc" stroke = "black"/>
</g>
<g>
<polygon points = "188.406, 113.167 216.670, 215.144 302.700, 178.484 340.584, 125.249 282.464, 0.000 187.365, 0.000 "
fill = "#ffcccc" stroke = "black"/>
</g>
</svg>
