<svg xmlns = "http://www.w3.org/2000/svg" width = "1000" height = "1000">
<g>
<polygon points = "447.694, 164.908 435.159, 114.539 409.339, 100.520 359.083, 146.202 360.279, 153.173 362.675, 164.953 "
fill = "#ffcccc" stroke = "black"/>
</g>
<g>
<polygon points = "786.677, 182.119 785.927, 280.792 811.028, 288.193 853.285, 267.958 868.206, 250.977 859.602, 208.841 "
fill = "#ffcccc" stroke = "black"/>
</g>
<g>
<polygon points = "154.256, 40.598 171.694, 116.697 262.866, 105.703 272.943, 101.032 277.346, 69.916 272.166, 59.960 207.902, 44.714 "
fill = "#ffcccc" stroke = "black"/>
</g>
<g>
<polygon points = "724.450, 673.372 748.949, 687.657 808.228, 683.315 807.685, 645.087 807.548, 644.986 780.243, 641.591 728.429, 651.933 "
fill = "#ffcccc" stroke = "black"/>
</g>
<g>
<polygon points = "547.775, 728.943 586.378, 778.321 611.070, 733.989 604.951, 707.677 565.217, 681.346 561.479, 681.414 "
fill = "#ffcccc" stroke = "black"/>
</g>
<g>
<polygon points = "657.943, 559.055 677.978, 537.852 618.394, 471.969 606.781, 501.450 618.475, 573.290 "
fill = "#ffcccc" stroke = "black"/>
</g>
<g>
<polygon points = "517.953, 555.894 475.875, 536.079 435.336, 554.417 400.655, 601.551 400.711, 612.304 444.932, 699.661 457.397, 702.861 480.003, 696.788 527.037, 678.635 542.277, 573.935 "
fill = "#ffcccc" stroke = "black"/>
</g>
<g>
<polygon points = "846.326, 14.155 850.796, 25.158 878.559, 52.679 916.352, 52.358 919.791, 45.518 "
fill = "#ffcccc" stroke = "black"/>
</g>
<g>
<polygon points = "711.795, 299.199 698.641, 301.055 668.299, 364.283 685.667, 423.122 689.127, 424.515 741.179, 392.577 737.280, 348.411 "
fill = "#ffcccc" stroke = "black"/>
</g>
<g>
<polygon points = "609.564, 896.166 649.264, 848.839 613.355, 808.923 581.236, 791.636 547.800, 809.604 520.872, 861.327 572.264, 910.602 "
fill = "#ffcccc" stroke = "black"/>
</g>
<g>
<polygon points = "330.152, 971.095 286.395, 916.402 281.888, 915.447 195.734, 976.892 186.055, 1000.000 347.340, 1000.000 "
fill = "#ffcccc" stroke = "black"/>
</g>
<g>
<polygon points = "787.565, 820.867 775.500, 847.407 850.508, 915.714 845.197, 876.555 "
fill = "#ffcccc" stroke = "black"/>
</g>
<g>
<polygon points = "389.092, 870.987 444.318, 888.437 464.629, 879.339 411.072, 818.933 383.437, 858.567 "
fill = "#ffcccc" stroke = "black"/>
</g>
<g>
<polygon points = "132.350, 789.003 67.073, 899.415 79.443, 908.167 167.537, 851.025 141.133, 789.317 "
fill = "#ffcccc" stroke = "black"/>
</g>
<g>
<polygon points = "207.902, 44.714 272.166, 59.960 279.202, 0.000 211.334, 0.000 "
fill = "#ffcccc" stroke = "black"/>
</g>
<g>
<polygon points = "801.212, 502.191 832.513, 514.000 900.603, 500.415 902.779, 499.191 905.149, 496.451 905.372, 483.311 816.752, 430.031 813.668, 434.297 800.634, 499.592 "
fill = "#ffcccc" stroke = "black"/>
</g>
<g>
<polygon points = "299.925, 359.390 280.363, 401.492 320.697, 443.907 347.112, 435.083 350.523, 427.770 317.206, 357.065 "
fill = "#ffcccc" stroke = "black"/>
</g>
<g>
<polygon points = "492.295, 364.812 542.510, 411.269 576.936, 372.283 582.963, 350.486 565.827, 297.098 565.799, 297.072 "
fill = "#ffcccc" stroke = "black"/>
</g>
<g>
<polygon points = "913.938, 502.320 937.205, 523.340 980.787, 555.232 1000.000, 566.333 1000.000, 495.731 "
fill = "#ffcccc" stroke = "black"/>
</g>
<g>
<polygon points = "811.251, 766.936 826.760, 715.583 808.228, 683.315 748.949, 687.657 770.639, 774.234 787.633, 777.713 "
fill = "#ffcccc" stroke = "black"/>
</g>
<g>
<polygon points = "771.294, 447.338 758.556, 486.904 800.634, 499.592 813.668, 434.297 "
fill = "#ffcccc" stroke = "black"/>
</g>
<g>
<polygon points = "892.779, 647.615 936.856, 624.025 910.678, 582.521 901.836, 575.228 852.883, 589.290 853.617, 620.734 "
fill = "#ffcccc" stroke = "black"/>
</g>
<g>
<polygon points = "293.559, 697.975 292.945, 704.781 388.455, 769.564 419.709, 741.949 444.932, 699.661 400.711, 612.304 "
fill = "#ffcccc" stroke = "black"/>
</g>
<g>
<polygon points = "871.686, 166.946 859.602, 208.841 868.206, 250.977 974.330, 257.898 1000.000, 249.682 1000.000, 198.881 "
fill = "#ffcccc" stroke = "black"/>
</g>
<g>
<polygon points = "885.408, 917.393 865.576, 934.771 1000.000, 988.582 1000.000, 936.040 "
fill = "#ffcccc" stroke = "black"/>
</g>
<g>
<polygon points = "112.047, 476.989 75.567, 468.002 96.728, 496.620 "
fill = "#ffcccc" stroke = "black"/>
</g>
<g>
<polygon points = "653.466, 849.636 693.799, 777.979 613.355, 808.923 649.264, 848.839 "
fill = "#ffcccc" stroke = "black"/>
</g>
<g>
<polygon points = "277.346, 69.916 272.943, 101.032 284.017, 123.379 359.083, 146.202 409.339, 100.520 386.596, 57.618 "
fill = "#ffcccc" stroke = "black"/>
</g>
<g>
<polygon points = "53.888, 896.887 0.000, 864.376 0.000, 1000.000 14.793, 1000.000 "
fill = "#ffcccc" stroke = "black"/>
</g>
<g>
<polygon points = "40.948, 573.988 68.158, 607.447 126.727, 594.440 130.147, 590.682 121.716, 563.971 87.414, 515.100 49.448, 505.907 18.446, 515.897 "
fill = "#ffcccc" stroke = "black"/>
</g>
<g>
<polygon points = "950.764, 718.681 949.385, 719.298 929.057, 741.932 935.184, 792.771 994.463, 847.870 1000.000, 848.564 1000.000, 734.786 "
fill = "#ffcccc" stroke = "black"/>
</g>
<g>
<polygon points = "849.084, 52.621 830.835, 105.291 876.092, 136.386 "
fill = "#ffcccc" stroke = "black"/>
</g>
<g>
<polygon points = "547.800, 809.604 581.236, 791.636 586.378, 778.321 547.775, 728.943 480.003, 696.788 457.397, 702.861 "
fill = "#ffcccc" stroke = "black"/>
</g>
<g>
<polygon points = "742.911, 580.885 718.243, 621.768 728.429, 651.933 780.243, 641.591 "
fill = "#ffcccc" stroke = "black"/>
</g>
<g>
<polygon points = "707.974, 529.250 715.056, 490.817 706.718, 449.940 689.127, 424.515 685.667, 423.122 642.712, 441.166 618.053, 469.805 618.394, 471.969 677.978, 537.852 "
fill = "#ffcccc" stroke = "black"/>
</g>
<g>
<polygon points = "18.446, 515.897 49.448, 505.907 63.300, 458.563 62.698, 423.683 0.000, 422.582 0.000, 509.048 "
fill = "#ffcccc" stroke = "black"/>
</g>
<g>
<polygon points = "980.787, 555.232 937.205, 523.340 925.953, 569.378 "
fill = "#ffcccc" stroke = "black"/>
</g>
<g>
<polygon points = "721.418, 39.724 695.130, 45.885 710.427, 101.836 766.054, 101.791 772.875, 63.914 "
fill = "#ffcccc" stroke = "black"/>
</g>
<g>
<polygon points = "701.104, 691.699 690.719, 740.096 708.961, 766.389 728.348, 776.534 770.639, 774.234 748.949, 687.657 724.450, 673.372 "
fill = "#ffcccc" stroke = "black"/>
</g>
<g>
<polygon points = "346.214, 323.106 325.983, 335.510 317.206, 357.065 350.523, 427.770 393.512, 395.630 392.920, 353.713 "
fill = "#ffcccc" stroke = "black"/>
</g>
<g>
<polygon points = "157.767, 288.733 135.025, 304.156 132.775, 307.931 133.185, 365.250 182.418, 357.707 207.116, 330.986 210.105, 324.557 "
fill = "#ffcccc" stroke = "black"/>
</g>
<g>
<polygon points = "843.949, 575.288 852.883, 589.290 901.836, 575.228 902.779, 499.191 900.603, 500.415 "
fill = "#ffcccc" stroke = "black"/>
</g>
<g>
<polygon points = "284.017, 123.379 281.945, 172.827 307.595, 186.412 360.279, 153.173 359.083, 146.202 "
fill = "#ffcccc" stroke = "black"/>
</g>
<g>
<polygon points = "916.024, 739.726 837.228, 779.685 866.578, 808.295 935.184, 792.771 929.057, 741.932 "
fill = "#ffcccc" stroke = "black"/>
</g>
<g>
<polygon points = "718.243, 621.768 688.846, 617.465 642.245, 646.971 642.816, 656.256 701.104, 691.699 724.450, 673.372 728.429, 651.933 "
fill = "#ffcccc" stroke = "black"/>
</g>
<g>
<polygon points = "521.543, 69.601 553.853, 103.441 644.489, 40.247 648.496, 29.414 641.098, 0.000 515.402, 0.000 "
fill = "#ffcccc" stroke = "black"/>
</g>
<g>
<polygon points = "907.631, 373.554 853.285, 267.958 811.028, 288.193 810.017, 356.115 817.015, 394.916 "
fill = "#ffcccc" stroke = "black"/>
</g>
<g>
<polygon points = "925.953, 569.378 937.205, 523.340 913.938, 502.320 905.149, 496.451 902.779, 499.191 901.836, 575.228 910.678, 582.521 "
fill = "#ffcccc" stroke = "black"/>
</g>
<g>
<polygon points = "853.617, 620.734 852.883, 589.290 843.949, 575.288 836.926, 571.608 802.996, 568.962 784.038, 579.804 807.548, 644.986 807.685, 645.087 "
fill = "#ffcccc" stroke = "black"/>
</g>
<g>
<polygon points = "916.328, 376.259 974.330, 257.898 868.206, 250.977 853.285, 267.958 907.631, 373.554 "
fill = "#ffcccc" stroke = "black"/>
</g>
<g>
<polygon points = "249.943, 491.262 187.358, 505.443 183.941, 545.974 256.005, 525.077 "
fill = "#ffcccc" stroke = "black"/>
</g>
<g>
<polygon points = "952.826, 71.886 968.792, 50.274 948.312, 41.443 919.791, 45.518 916.352, 52.358 "
fill = "#ffcccc" stroke = "black"/>
</g>
<g>
<polygon points = "926.044, 879.029 866.657, 809.375 845.197, 876.555 850.508, 915.714 856.042, 937.562 865.576, 934.771 885.408, 917.393 "
fill = "#ffcccc" stroke = "black"/>
</g>
<g>
<polygon points = "471.404, 363.228 470.623, 361.250 454.235, 336.953 415.068, 328.806 392.920, 353.713 393.512, 395.630 413.669, 399.310 458.074, 384.457 "
fill = "#ffcccc" stroke = "black"/>
</g>
<g>
<polygon points = "279.807, 356.083 261.807, 368.855 276.856, 399.974 280.363, 401.492 299.925, 359.390 "
fill = "#ffcccc" stroke = "black"/>
</g>
<g>
<polygon points = "311.335, 244.125 336.613, 234.559 350.406, 211.259 307.595, 186.412 281.945, 172.827 277.119, 180.343 "
fill = "#ffcccc" stroke = "black"/>
</g>
<g>
<polygon points = "283.158, 575.336 267.895, 540.855 256.005, 525.077 183.941, 545.974 161.265, 584.616 227.579, 612.148 234.144, 611.853 "
fill = "#ffcccc" stroke = "black"/>
</g>
<g>
<polygon points = "322.890, 829.339 333.023, 812.029 266.793, 753.980 241.353, 764.471 259.806, 823.423 "
fill = "#ffcccc" stroke = "black"/>
</g>
<g>
<polygon points = "416.904, 404.387 413.669, 399.310 393.512, 395.630 350.523, 427.770 347.112, 435.083 433.944, 552.350 "
fill = "#ffcccc" stroke = "black"/>
</g>
<g>
<polygon points = "994.463, 847.870 935.184, 792.771 866.578, 808.295 866.657, 809.375 926.044, 879.029 "
fill = "#ffcccc" stroke = "black"/>
</g>
<g>
<polygon points = "96.707, 932.445 175.259, 860.894 167.537, 851.025 79.443, 908.167 "
fill = "#ffcccc" stroke = "black"/>
</g>
<g>
<polygon points = "729.037, 545.925 797.276, 509.040 801.212, 502.191 800.634, 499.592 758.556, 486.904 715.056, 490.817 707.974, 529.250 "
fill = "#ffcccc" stroke = "black"/>
</g>
<g>
<polygon points = "948.312, 41.443 968.792, 50.274 1000.000, 31.641 1000.000, 0.000 880.979, 0.000 "
fill = "#ffcccc" stroke = "black"/>
</g>
<g>
<polygon points = "408.243, 275.707 361.023, 286.206 352.854, 295.880 346.214, 323.106 392.920, 353.713 415.068, 328.806 "
fill = "#ffcccc" stroke = "black"/>
</g>
<g>
<polygon points = "443.822, 230.135 364.281, 204.612 350.406, 211.259 336.613, 234.559 361.023, 286.206 408.243, 275.707 "
fill = "#ffcccc" stroke = "black"/>
</g>
<g>
<polygon points = "280.401, 687.362 210.210, 689.052 173.575, 732.945 173.682, 759.072 237.420, 764.731 241.353, 764.471 266.793, 753.980 292.945, 704.781 293.559, 697.975 "
fill = "#ffcccc" stroke = "black"/>
</g>
<g>
<polygon points = "252.862, 463.539 255.392, 405.532 235.216, 393.545 213.863, 400.795 208.238, 439.101 "
fill = "#ffcccc" stroke = "black"/>
</g>
<g>
<polygon points = "699.260, 848.831 738.029, 906.355 743.238, 905.658 760.625, 866.045 717.200, 818.131 "
fill = "#ffcccc" stroke = "black"/>
</g>
<g>
<polygon points = "839.982, 954.718 856.042, 937.562 850.508, 915.714 775.500, 847.407 760.625, 866.045 743.238, 905.658 "
fill = "#ffcccc" stroke = "black"/>
</g>
<g>
<polygon points = "717.200, 818.131 760.625, 866.045 775.500, 847.407 787.565, 820.867 787.633, 777.713 770.639, 774.234 728.348, 776.534 "
fill = "#ffcccc" stroke = "black"/>
</g>
<g>
<polygon points = "994.463, 847.870 926.044, 879.029 885.408, 917.393 1000.000, 936.040 1000.000, 848.564 "
fill = "#ffcccc" stroke = "black"/>
</g>
<g>
<polygon points = "572.264, 910.602 520.872, 861.327 496.554, 868.648 482.017, 877.762 487.697, 1000.000 589.606, 1000.000 "
fill = "#ffcccc" stroke = "black"/>
</g>
<g>
<polygon points = "224.944, 877.803 236.643, 881.699 259.806, 823.423 241.353, 764.471 237.420, 764.731 "
fill = "#ffcccc" stroke = "black"/>
</g>
<g>
<polygon points = "765.764, 174.262 688.173, 190.425 741.297, 244.601 "
fill = "#ffcccc" stroke = "black"/>
</g>
<g>
<polygon points = "974.330, 257.898 916.328, 376.259 952.310, 416.852 1000.000, 415.524 1000.000, 249.682 "
fill = "#ffcccc" stroke = "black"/>
</g>
<g>
<polygon points = "815.771, 397.261 817.015, 394.916 810.017, 356.115 737.280, 348.411 741.179, 392.577 "
fill = "#ffcccc" stroke = "black"/>
</g>
<g>
<polygon points = "105.621, 949.750 171.412, 913.475 185.593, 871.513 175.259, 860.894 96.707, 932.445 "
fill = "#ffcccc" stroke = "black"/>
</g>
<g>
<polygon points = "63.300, 458.563 49.448, 505.907 87.414, 515.100 96.728, 496.620 75.567, 468.002 "
fill = "#ffcccc" stroke = "black"/>
</g>
<g>
<polygon points = "195.734, 976.892 281.888, 915.447 236.643, 881.699 224.944, 877.803 185.593, 871.513 171.412, 913.475 "
fill = "#ffcccc" stroke = "black"/>
</g>
<g>
<polygon points = "797.276, 509.040 802.996, 568.962 836.926, 571.608 832.513, 514.000 801.212, 502.191 "
fill = "#ffcccc" stroke = "black"/>
</g>
<g>
<polygon points = "706.718, 449.940 771.294, 447.338 813.668, 434.297 816.752, 430.031 815.771, 397.261 741.179, 392.577 689.127, 424.515 "
fill = "#ffcccc" stroke = "black"/>
</g>
<g>
<polygon points = "195.734, 976.892 171.412, 913.475 105.621, 949.750 105.828, 1000.000 186.055, 1000.000 "
fill = "#ffcccc" stroke = "black"/>
</g>
<g>
<polygon points = "129.529, 24.122 154.256, 40.598 207.902, 44.714 211.334, 0.000 129.177, 0.000 "
fill = "#ffcccc" stroke = "black"/>
</g>
<g>
<polygon points = "100.258, 63.685 101.255, 111.685 131.537, 150.247 155.777, 148.378 157.514, 143.540 "
fill = "#ffcccc" stroke = "black"/>
</g>
<g>
<polygon points = "42.791, 61.417 98.225, 49.736 129.529, 24.122 129.177, 0.000 26.444, 0.000 "
fill = "#ffcccc" stroke = "black"/>
</g>
<g>
<polygon points = "68.008, 193.043 85.398, 122.977 0.000, 101.332 0.000, 230.220 41.030, 219.112 "
fill = "#ffcccc" stroke = "black"/>
</g>
<g>
<polygon points = "865.576, 934.771 856.042, 937.562 839.982, 954.718 831.906, 1000.000 1000.000, 1000.000 1000.000, 988.582 "
fill = "#ffcccc" stroke = "black"/>
</g>
<g>
<polygon points = "208.238, 439.101 213.863, 400.795 182.418, 357.707 133.185, 365.250 112.411, 383.188 109.174, 399.359 141.363, 447.932 154.892, 456.318 158.390, 457.077 "
fill = "#ffcccc" stroke = "black"/>
</g>
<g>
<polygon points = "343.623, 808.589 383.437, 858.567 411.072, 818.933 386.073, 774.252 "
fill = "#ffcccc" stroke = "black"/>
</g>
<g>
<polygon points = "772.875, 63.914 766.054, 101.791 775.355, 121.119 830.835, 105.291 849.084, 52.621 850.796, 25.158 846.326, 14.155 839.820, 0.000 828.808, 0.000 "
fill = "#ffcccc" stroke = "black"/>
</g>
<g>
<polygon points = "592.733, 591.917 542.277, 573.935 527.037, 678.635 561.479, 681.414 565.217, 681.346 "
fill = "#ffcccc" stroke = "black"/>
</g>
<g>
<polygon points = "458.074, 384.457 413.669, 399.310 416.904, 404.387 492.110, 495.093 508.767, 469.761 "
fill = "#ffcccc" stroke = "black"/>
</g>
<g>
<polygon points = "111.479, 382.353 112.411, 383.188 133.185, 365.250 132.775, 307.931 91.802, 290.400 "
fill = "#ffcccc" stroke = "black"/>
</g>
<g>
<polygon points = "706.718, 449.940 715.056, 490.817 758.556, 486.904 771.294, 447.338 "
fill = "#ffcccc" stroke = "black"/>
</g>
<g>
<polygon points = "982.551, 625.184 950.764, 718.681 1000.000, 734.786 1000.000, 616.996 "
fill = "#ffcccc" stroke = "black"/>
</g>
<g>
<polygon points = "952.310, 416.852 916.328, 376.259 907.631, 373.554 817.015, 394.916 815.771, 397.261 816.752, 430.031 905.372, 483.311 "
fill = "#ffcccc" stroke = "black"/>
</g>
<g>
<polygon points = "566.336, 297.038 664.380, 245.254 649.496, 184.044 613.627, 184.905 557.598, 283.731 565.799, 297.072 565.827, 297.098 "
fill = "#ffcccc" stroke = "black"/>
</g>
<g>
<polygon points = "839.982, 954.718 743.238, 905.658 738.029, 906.355 692.414, 939.356 671.937, 1000.000 831.906, 1000.000 "
fill = "#ffcccc" stroke = "black"/>
</g>
<g>
<polygon points = "929.699, 111.119 925.027, 111.507 880.430, 141.508 871.861, 161.699 871.686, 166.946 1000.000, 198.881 1000.000, 169.483 "
fill = "#ffcccc" stroke = "black"/>
</g>
<g>
<polygon points = "775.355, 121.119 775.816, 127.675 871.861, 161.699 880.430, 141.508 876.092, 136.386 830.835, 105.291 "
fill = "#ffcccc" stroke = "black"/>
</g>
<g>
<polygon points = "721.418, 39.724 772.875, 63.914 828.808, 0.000 729.200, 0.000 "
fill = "#ffcccc" stroke = "black"/>
</g>
<g>
<polygon points = "968.792, 50.274 952.826, 71.886 929.699, 111.119 1000.000, 169.483 1000.000, 31.641 "
fill = "#ffcccc" stroke = "black"/>
</g>
<g>
<polygon points = "525.030, 270.685 470.623, 361.250 471.404, 363.228 492.295, 364.812 565.799, 297.072 557.598, 283.731 "
fill = "#ffcccc" stroke = "black"/>
</g>
<g>
<polygon points = "866.657, 809.375 866.578, 808.295 837.228, 779.685 811.251, 766.936 787.633, 777.713 787.565, 820.867 845.197, 876.555 "
fill = "#ffcccc" stroke = "black"/>
</g>
<g>
<polygon points = "98.225, 49.736 42.791, 61.417 0.000, 94.342 0.000, 101.332 85.398, 122.977 101.255, 111.685 100.258, 63.685 "
fill = "#ffcccc" stroke = "black"/>
</g>
<g>
<polygon points = "260.203, 368.915 234.661, 300.112 232.210, 301.350 210.105, 324.557 207.116, 330.986 250.465, 371.506 "
fill = "#ffcccc" stroke = "black"/>
</g>
<g>
<polygon points = "213.863, 400.795 235.216, 393.545 250.465, 371.506 207.116, 330.986 182.418, 357.707 "
fill = "#ffcccc" stroke = "black"/>
</g>
<g>
<polygon points = "352.854, 295.880 283.082, 269.214 260.073, 277.937 259.203, 280.442 325.983, 335.510 346.214, 323.106 "
fill = "#ffcccc" stroke = "black"/>
</g>
<g>
<polygon points = "234.144, 611.853 227.579, 612.148 210.924, 654.654 210.210, 689.052 280.401, 687.362 "
fill = "#ffcccc" stroke = "black"/>
</g>
<g>
<polygon points = "692.414, 939.356 680.416, 925.895 609.564, 896.166 572.264, 910.602 589.606, 1000.000 671.937, 1000.000 "
fill = "#ffcccc" stroke = "black"/>
</g>
<g>
<polygon points = "693.799, 777.979 708.961, 766.389 690.719, 740.096 611.070, 733.989 586.378, 778.321 581.236, 791.636 613.355, 808.923 "
fill = "#ffcccc" stroke = "black"/>
</g>
<g>
<polygon points = "952.310, 416.852 905.372, 483.311 905.149, 496.451 913.938, 502.320 1000.000, 495.731 1000.000, 415.524 "
fill = "#ffcccc" stroke = "black"/>
</g>
<g>
<polygon points = "547.775, 728.943 561.479, 681.414 527.037, 678.635 480.003, 696.788 "
fill = "#ffcccc" stroke = "black"/>
</g>
<g>
<polygon points = "91.802, 290.400 132.775, 307.931 135.025, 304.156 112.406, 233.750 41.030, 219.112 0.000, 230.220 0.000, 236.277 "
fill = "#ffcccc" stroke = "black"/>
</g>
<g>
<polygon points = "517.953, 555.894 542.277, 573.935 592.733, 591.917 597.029, 591.715 618.475, 573.290 606.781, 501.450 "
fill = "#ffcccc" stroke = "black"/>
</g>
<g>
<polygon points = "386.596, 57.618 409.339, 100.520 435.159, 114.539 521.543, 69.601 515.402, 0.000 407.320, 0.000 "
fill = "#ffcccc" stroke = "black"/>
</g>
<g>
<polygon points = "864.202, 700.923 890.819, 661.915 892.779, 647.615 853.617, 620.734 807.685, 645.087 808.228, 683.315 826.760, 715.583 "
fill = "#ffcccc" stroke = "black"/>
</g>
<g>
<polygon points = "40.948, 573.988 18.446, 515.897 0.000, 509.048 0.000, 577.746 "
fill = "#ffcccc" stroke = "black"/>
</g>
<g>
<polygon points = "642.816, 656.256 642.245, 646.971 597.029, 591.715 592.733, 591.917 565.217, 681.346 604.951, 707.677 "
fill = "#ffcccc" stroke = "black"/>
</g>
<g>
<polygon points = "184.990, 188.113 188.527, 203.081 236.029, 219.296 277.119, 180.343 281.945, 172.827 284.017, 123.379 272.943, 101.032 262.866, 105.703 "
fill = "#ffcccc" stroke = "black"/>
</g>
<g>
<polygon points = "489.512, 251.122 454.235, 336.953 470.623, 361.250 525.030, 270.685 "
fill = "#ffcccc" stroke = "black"/>
</g>
<g>
<polygon points = "355.045, 585.472 312.995, 496.201 267.895, 540.855 283.158, 575.336 "
fill = "#ffcccc" stroke = "black"/>
</g>
<g>
<polygon points = "232.210, 301.350 168.889, 257.447 157.767, 288.733 210.105, 324.557 "
fill = "#ffcccc" stroke = "black"/>
</g>
<g>
<polygon points = "62.698, 423.683 109.174, 399.359 112.411, 383.188 111.479, 382.353 0.000, 290.683 0.000, 422.582 "
fill = "#ffcccc" stroke = "black"/>
</g>
<g>
<polygon points = "688.846, 617.465 718.243, 621.768 742.911, 580.885 744.681, 576.290 729.037, 545.925 707.974, 529.250 677.978, 537.852 657.943, 559.055 "
fill = "#ffcccc" stroke = "black"/>
</g>
<g>
<polygon points = "696.212, 299.414 566.336, 297.038 565.827, 297.098 582.963, 350.486 668.299, 364.283 698.641, 301.055 "
fill = "#ffcccc" stroke = "black"/>
</g>
<g>
<polygon points = "138.632, 665.186 145.300, 673.915 210.924, 654.654 227.579, 612.148 161.265, 584.616 130.147, 590.682 126.727, 594.440 "
fill = "#ffcccc" stroke = "black"/>
</g>
<g>
<polygon points = "582.963, 350.486 576.936, 372.283 642.712, 441.166 685.667, 423.122 668.299, 364.283 "
fill = "#ffcccc" stroke = "black"/>
</g>
<g>
<polygon points = "336.613, 234.559 311.335, 244.125 283.082, 269.214 352.854, 295.880 361.023, 286.206 "
fill = "#ffcccc" stroke = "black"/>
</g>
<g>
<polygon points = "163.119, 229.175 168.889, 257.447 232.210, 301.350 234.661, 300.112 251.450, 289.526 259.203, 280.442 260.073, 277.937 236.029, 219.296 188.527, 203.081 "
fill = "#ffcccc" stroke = "black"/>
</g>
<g>
<polygon points = "648.496, 29.414 644.489, 40.247 656.281, 99.694 673.252, 126.169 710.427, 101.836 695.130, 45.885 "
fill = "#ffcccc" stroke = "black"/>
</g>
<g>
<polygon points = "251.450, 289.526 234.661, 300.112 260.203, 368.915 261.807, 368.855 279.807, 356.083 "
fill = "#ffcccc" stroke = "black"/>
</g>
<g>
<polygon points = "141.363, 447.932 109.174, 399.359 62.698, 423.683 63.300, 458.563 75.567, 468.002 112.047, 476.989 "
fill = "#ffcccc" stroke = "black"/>
</g>
<g>
<polygon points = "837.228, 779.685 916.024, 739.726 864.202, 700.923 826.760, 715.583 811.251, 766.936 "
fill = "#ffcccc" stroke = "black"/>
</g>
<g>
<polygon points = "111.479, 382.353 91.802, 290.400 0.000, 236.277 0.000, 290.683 "
fill = "#ffcccc" stroke = "black"/>
</g>
<g>
<polygon points = "383.418, 874.281 309.253, 877.467 286.395, 916.402 330.152, 971.095 "
fill = "#ffcccc" stroke = "black"/>
</g>
<g>
<polygon points = "576.936, 372.283 542.510, 411.269 532.049, 451.178 618.053, 469.805 642.712, 441.166 "
fill = "#ffcccc" stroke = "black"/>
</g>
<g>
<polygon points = "259.203, 280.442 251.450, 289.526 279.807, 356.083 299.925, 359.390 317.206, 357.065 325.983, 335.510 "
fill = "#ffcccc" stroke = "black"/>
</g>
<g>
<polygon points = "260.073, 277.937 283.082, 269.214 311.335, 244.125 277.119, 180.343 236.029, 219.296 "
fill = "#ffcccc" stroke = "black"/>
</g>
<g>
<polygon points = "173.575, 732.945 210.210, 689.052 210.924, 654.654 145.300, 673.915 "
fill = "#ffcccc" stroke = "black"/>
</g>
<g>
<polygon points = "0.000, 94.342 42.791, 61.417 26.444, 0.000 0.000, 0.000 "
fill = "#ffcccc" stroke = "black"/>
</g>
<g>
<polygon points = "307.595, 186.412 350.406, 211.259 364.281, 204.612 362.675, 164.953 360.279, 153.173 "
fill = "#ffcccc" stroke = "black"/>
</g>
<g>
<polygon points = "419.709, 741.949 388.455, 769.564 386.073, 774.252 411.072, 818.933 464.629, 879.339 482.017, 877.762 496.554, 868.648 "
fill = "#ffcccc" stroke = "black"/>
</g>
<g>
<polygon points = "846.326, 14.155 919.791, 45.518 948.312, 41.443 880.979, 0.000 839.820, 0.000 "
fill = "#ffcccc" stroke = "black"/>
</g>
<g>
<polygon points = "741.297, 244.601 688.173, 190.425 656.658, 179.595 649.496, 184.044 664.380, 245.254 696.212, 299.414 698.641, 301.055 711.795, 299.199 749.236, 277.078 "
fill = "#ffcccc" stroke = "black"/>
</g>
<g>
<polygon points = "680.416, 925.895 692.414, 939.356 738.029, 906.355 699.260, 848.831 654.278, 850.050 "
fill = "#ffcccc" stroke = "black"/>
</g>
<g>
<polygon points = "784.038, 579.804 744.681, 576.290 742.911, 580.885 780.243, 641.591 807.548, 644.986 "
fill = "#ffcccc" stroke = "black"/>
</g>
<g>
<polygon points = "952.826, 71.886 916.352, 52.358 878.559, 52.679 925.027, 111.507 929.699, 111.119 "
fill = "#ffcccc" stroke = "black"/>
</g>
<g>
<polygon points = "184.990, 188.113 262.866, 105.703 171.694, 116.697 157.514, 143.540 155.777, 148.378 "
fill = "#ffcccc" stroke = "black"/>
</g>
<g>
<polygon points = "462.887, 223.474 489.512, 251.122 525.030, 270.685 557.598, 283.731 613.627, 184.905 560.811, 139.036 465.092, 214.134 "
fill = "#ffcccc" stroke = "black"/>
</g>
<g>
<polygon points = "890.819, 661.915 864.202, 700.923 916.024, 739.726 929.057, 741.932 949.385, 719.298 "
fill = "#ffcccc" stroke = "black"/>
</g>
<g>
<polygon points = "849.084, 52.621 876.092, 136.386 880.430, 141.508 925.027, 111.507 878.559, 52.679 850.796, 25.158 "
fill = "#ffcccc" stroke = "black"/>
</g>
<g>
<polygon points = "618.053, 469.805 532.049, 451.178 508.767, 469.761 492.110, 495.093 475.875, 536.079 517.953, 555.894 606.781, 501.450 618.394, 471.969 "
fill = "#ffcccc" stroke = "black"/>
</g>
<g>
<polygon points = "309.253, 877.467 322.890, 829.339 259.806, 823.423 236.643, 881.699 281.888, 915.447 286.395, 916.402 "
fill = "#ffcccc" stroke = "black"/>
</g>
<g>
<polygon points = "435.159, 114.539 447.694, 164.908 465.092, 214.134 560.811, 139.036 557.285, 113.581 553.853, 103.441 521.543, 69.601 "
fill = "#ffcccc" stroke = "black"/>
</g>
<g>
<polygon points = "836.926, 571.608 843.949, 575.288 900.603, 500.415 832.513, 514.000 "
fill = "#ffcccc" stroke = "black"/>
</g>
<g>
<polygon points = "256.381, 466.618 249.943, 491.262 256.005, 525.077 267.895, 540.855 312.995, 496.201 312.893, 450.107 "
fill = "#ffcccc" stroke = "black"/>
</g>
<g>
<polygon points = "654.278, 850.050 699.260, 848.831 717.200, 818.131 728.348, 776.534 708.961, 766.389 693.799, 777.979 653.466, 849.636 "
fill = "#ffcccc" stroke = "black"/>
</g>
<g>
<polygon points = "112.406, 233.750 135.025, 304.156 157.767, 288.733 168.889, 257.447 163.119, 229.175 "
fill = "#ffcccc" stroke = "black"/>
</g>
<g>
<polygon points = "471.404, 363.228 458.074, 384.457 508.767, 469.761 532.049, 451.178 542.510, 411.269 492.295, 364.812 "
fill = "#ffcccc" stroke = "black"/>
</g>
<g>
<polygon points = "771.094, 169.390 771.470, 142.380 668.027, 154.634 656.658, 179.595 688.173, 190.425 765.764, 174.262 "
fill = "#ffcccc" stroke = "black"/>
</g>
<g>
<polygon points = "224.944, 877.803 237.420, 764.731 173.682, 759.072 141.133, 789.317 167.537, 851.025 175.259, 860.894 185.593, 871.513 "
fill = "#ffcccc" stroke = "black"/>
</g>
<g>
<polygon points = "87.414, 515.100 121.716, 563.971 154.892, 456.318 141.363, 447.932 112.047, 476.989 96.728, 496.620 "
fill = "#ffcccc" stroke = "black"/>
</g>
<g>
<polygon points = "309.253, 877.467 383.418, 874.281 389.092, 870.987 383.437, 858.567 343.623, 808.589 333.023, 812.029 322.890, 829.339 "
fill = "#ffcccc" stroke = "black"/>
</g>
<g>
<polygon points = "982.551, 625.184 936.856, 624.025 892.779, 647.615 890.819, 661.915 949.385, 719.298 950.764, 718.681 "
fill = "#ffcccc" stroke = "black"/>
</g>
<g>
<polygon points = "656.281, 99.694 644.489, 40.247 553.853, 103.441 557.285, 113.581 "
fill = "#ffcccc" stroke = "black"/>
</g>
<g>
<polygon points = "871.861, 161.699 775.816, 127.675 771.470, 142.380 771.094, 169.390 786.677, 182.119 859.602, 208.841 871.686, 166.946 "
fill = "#ffcccc" stroke = "black"/>
</g>
<g>
<polygon points = "433.944, 552.350 347.112, 435.083 320.697, 443.907 312.893, 450.107 312.995, 496.201 355.045, 585.472 400.655, 601.551 435.336, 554.417 "
fill = "#ffcccc" stroke = "black"/>
</g>
<g>
<polygon points = "597.029, 591.715 642.245, 646.971 688.846, 617.465 657.943, 559.055 618.475, 573.290 "
fill = "#ffcccc" stroke = "black"/>
</g>
<g>
<polygon points = "276.856, 399.974 261.807, 368.855 260.203, 368.915 250.465, 371.506 235.216, 393.545 255.392, 405.532 "
fill = "#ffcccc" stroke = "black"/>
</g>
<g>
<polygon points = "53.888, 896.887 67.073, 899.415 132.350, 789.003 1.945, 750.441 0.000, 750.240 0.000, 864.376 "
fill = "#ffcccc" stroke = "black"/>
</g>
<g>
<polygon points = "680.416, 925.895 654.278, 850.050 653.466, 849.636 649.264, 848.839 609.564, 896.166 "
fill = "#ffcccc" stroke = "black"/>
</g>
<g>
<polygon points = "355.045, 585.472 283.158, 575.336 234.144, 611.853 280.401, 687.362 293.559, 697.975 400.711, 612.304 400.655, 601.551 "
fill = "#ffcccc" stroke = "black"/>
</g>
<g>
<polygon points = "1.945, 750.441 138.632, 665.186 126.727, 594.440 68.158, 607.447 0.000, 681.045 0.000, 750.240 "
fill = "#ffcccc" stroke = "black"/>
</g>
<g>
<polygon points = "980.787, 555.232 925.953, 569.378 910.678, 582.521 936.856, 624.025 982.551, 625.184 1000.000, 616.996 1000.000, 566.333 "
fill = "#ffcccc" stroke = "black"/>
</g>
<g>
<polygon points = "276.856, 399.974 255.392, 405.532 252.862, 463.539 256.381, 466.618 312.893, 450.107 320.697, 443.907 280.363, 401.492 "
fill = "#ffcccc" stroke = "black"/>
</g>
<g>
<polygon points = "810.017, 356.115 811.028, 288.193 785.927, 280.792 749.236, 277.078 711.795, 299.199 737.280, 348.411 "
fill = "#ffcccc" stroke = "black"/>
</g>
<g>
<polygon points = "158.390, 457.077 154.892, 456.318 121.716, 563.971 130.147, 590.682 161.265, 584.616 183.941, 545.974 187.358, 505.443 "
fill = "#ffcccc" stroke = "black"/>
</g>
<g>
<polygon points = "668.027, 154.634 673.252, 126.169 656.281, 99.694 557.285, 113.581 560.811, 139.036 613.627, 184.905 649.496, 184.044 656.658, 179.595 "
fill = "#ffcccc" stroke = "black"/>
</g>
<g>
<polygon points = "256.381, 466.618 252.862, 463.539 208.238, 439.101 158.390, 457.077 187.358, 505.443 249.943, 491.262 "
fill = "#ffcccc" stroke = "black"/>
</g>
<g>
<polygon points = "492.110, 495.093 416.904, 404.387 433.944, 552.350 435.336, 554.417 475.875, 536.079 "
fill = "#ffcccc" stroke = "black"/>
</g>
<g>
<polygon points = "364.281, 204.612 443.822, 230.135 462.887, 223.474 465.092, 214.134 447.694, 164.908 362.675, 164.953 "
fill = "#ffcccc" stroke = "black"/>
</g>
<g>
<polygon points = "343.623, 808.589 386.073, 774.252 388.455, 769.564 292.945, 704.781 266.793, 753.980 333.023, 812.029 "
fill = "#ffcccc" stroke = "black"/>
</g>
<g>
<polygon points = "664.380, 245.254 566.336, 297.038 696.212, 299.414 "
fill = "#ffcccc" stroke = "black"/>
</g>
<g>
<polygon points = "272.166, 59.960 277.346, 69.916 386.596, 57.618 407.320, 0.000 279.202, 0.000 "
fill = "#ffcccc" stroke = "black"/>
</g>
<g>
<polygon points = "98.225, 49.736 100.258, 63.685 157.514, 143.540 171.694, 116.697 154.256, 40.598 129.529, 24.122 "
fill = "#ffcccc" stroke = "black"/>
</g>
<g>
<polygon points = "68.158, 607.447 40.948, 573.988 0.000, 577.746 0.000, 681.045 "
fill = "#ffcccc" stroke = "black"/>
</g>
<g>
<polygon points = "771.094, 169.390 765.764, 174.262 741.297, 244.601 749.236, 277.078 785.927, 280.792 786.677, 182.119 "
fill = "#ffcccc" stroke = "black"/>
</g>
<g>
<polygon points = "1.945, 750.441 132.350, 789.003 141.133, 789.317 173.682, 759.072 173.575, 732.945 145.300, 673.915 138.632, 665.186 "
fill = "#ffcccc" stroke = "black"/>
</g>
<g>
<polygon points = "668.027, 154.634 771.470, 142.380 775.816, 127.675 775.355, 121.119 766.054, 101.791 710.427, 101.836 673.252, 126.169 "
fill = "#ffcccc" stroke = "black"/>
</g>
<g>
<polygon points = "482.017, 877.762 464.629, 879.339 444.318, 888.437 359.399, 1000.000 487.697, 1000.000 "
fill = "#ffcccc" stroke = "black"/>
</g>
<g>
<polygon points = "648.496, 29.414 695.130, 45.885 721.418, 39.724 729.200, 0.000 641.098, 0.000 "
fill = "#ffcccc" stroke = "black"/>
</g>
<g>
<polygon points = "419.709, 741.949 496.554, 868.648 520.872, 861.327 547.800, 809.604 457.397, 702.861 444.932, 699.661 "
fill = "#ffcccc" stroke = "black"/>
</g>
<g>
<polygon points = "85.398, 122.977 68.008, 193.043 131.537, 150.247 101.255, 111.685 "
fill = "#ffcccc" stroke = "black"/>
</g>
<g>
<polygon points = "444.318, 888.437 389.092, 870.987 383.418, 874.281 330.152, 971.095 347.340, 1000.000 359.399, 1000.000 "
fill = "#ffcccc" stroke = "black"/>
</g>
<g>
<polygon points = "690.719, 740.096 701.104, 691.699 642.816, 656.256 604.951, 707.677 611.070, 733.989 "
fill = "#ffcccc" stroke = "black"/>
</g>
<g>
<polygon points = "112.406, 233.750 163.119, 229.175 188.527, 203.081 184.990, 188.113 155.777, 148.378 131.537, 150.247 68.008, 193.043 41.030, 219.112 "
fill = "#ffcccc" stroke = "black"/>
</g>
<g>
<polygon points = "105.621, 949.750 96.707, 932.445 79.443, 908.167 67.073, 899.415 53.888, 896.887 14.793, 1000.000 105.828, 1000.000 "
fill = "#ffcccc" stroke = "black"/>
</g>
<g>
<polygon points = "744.681, 576.290 784.038, 579.804 802.996, 568.962 797.276, 509.040 729.037, 545.925 "
fill = "#ffcccc" stroke = "black"/>
</g>
<g>
<polygon points = "443.822, 230.135 408.243, 275.707 415.068, 328.806 454.235, 336.953 489.512, 251.122 462.887, 223.474 "
fill = "#ffcccc" stroke = "black"/>
</g>
</svg>
