<svg xmlns = "http://www.w3.org/2000/svg" width = "1000" height = "1000">
<g>
<polygon points = "999.247, 143.519 912.180, 203.952 953.372, 298.223 1000.000, 340.529 1000.000, 143.413 "
fill = "#ffcccc" stroke = "black"/>
</g>
<g>
<polygon points = "422.719, 746.868 447.955, 739.620 518.154, 699.119 546.008, 672.564 485.943, 581.300 468.544, 586.334 "
fill = "#ffcccc" stroke = "black"/>
</g>
<g>
<polygon points = "528.003, 540.086 639.543, 449.576 529.217, 400.364 499.028, 499.420 514.335, 535.339 "
fill = "#ffcccc" stroke = "black"/>
</g>
<g>
<polygon points = "237.675, 292.034 212.713, 385.289 250.372, 409.060 282.885, 409.245 343.704, 355.647 323.028, 319.263 "
fill = "#ffcccc" stroke = "black"/>
</g>
<g>
<polygon points = "422.383, 415.856 410.015, 432.818 411.899, 508.982 455.655, 579.759 465.210, 586.330 468.544, 586.334 485.943, 581.300 514.335, 535.339 499.028, 499.420 "
fill = "#ffcccc" stroke = "black"/>
</g>
<g>
<polygon points = "824.732, 355.129 853.088, 433.968 899.775, 470.144 924.476, 483.467 958.299, 371.657 "
fill = "#ffcccc" stroke = "black"/>
</g>
<g>
<polygon points = "707.329, 786.001 700.795, 775.388 605.226, 727.062 611.827, 838.337 648.398, 862.857 691.487, 875.818 "
fill = "#ffcccc" stroke = "black"/>
</g>
<g>
<polygon points = "193.159, 185.753 191.326, 135.026 102.106, 151.012 65.406, 193.055 123.950, 261.499 129.337, 262.340 141.367, 258.999 "
fill = "#ffcccc" stroke = "black"/>
</g>
<g>
<polygon points = "250.761, 687.294 250.490, 686.224 177.031, 612.517 153.598, 598.292 104.966, 660.817 111.547, 691.357 175.291, 722.308 "
fill = "#ffcccc" stroke = "black"/>
</g>
<g>
<polygon points = "668.391, 452.086 676.631, 434.640 629.556, 360.690 499.698, 344.914 529.217, 400.364 639.543, 449.576 "
fill = "#ffcccc" stroke = "black"/>
</g>
<g>
<polygon points = "625.917, 307.686 508.237, 257.299 490.362, 268.369 484.614, 325.235 499.698, 344.914 629.556, 360.690 "
fill = "#ffcccc" stroke = "black"/>
</g>
<g>
<polygon points = "762.130, 925.994 691.487, 875.818 648.398, 862.857 638.464, 894.981 703.727, 1000.000 751.018, 1000.000 "
fill = "#ffcccc" stroke = "black"/>
</g>
<g>
<polygon points = "421.328, 404.095 343.704, 355.647 282.885, 409.245 279.515, 477.939 410.015, 432.818 422.383, 415.856 "
fill = "#ffcccc" stroke = "black"/>
</g>
<g>
<polygon points = "379.974, 889.110 315.040, 913.361 257.708, 1000.000 399.890, 1000.000 "
fill = "#ffcccc" stroke = "black"/>
</g>
<g>
<polygon points = "999.899, 933.528 857.931, 928.909 851.503, 1000.000 1000.000, 1000.000 1000.000, 933.574 "
fill = "#ffcccc" stroke = "black"/>
</g>
<g>
<polygon points = "811.918, 338.314 787.644, 333.519 731.830, 384.444 731.220, 385.421 792.594, 477.490 853.088, 433.968 824.732, 355.129 "
fill = "#ffcccc" stroke = "black"/>
</g>
<g>
<polygon points = "841.388, 46.526 836.730, 117.193 937.641, 127.340 913.107, 0.000 858.376, 0.000 "
fill = "#ffcccc" stroke = "black"/>
</g>
<g>
<polygon points = "396.296, 760.480 394.010, 794.920 401.890, 863.862 475.120, 872.404 504.760, 852.689 447.955, 739.620 422.719, 746.868 "
fill = "#ffcccc" stroke = "black"/>
</g>
<g>
<polygon points = "923.869, 630.255 883.193, 575.372 788.181, 518.119 828.884, 649.318 886.923, 675.225 898.272, 669.768 "
fill = "#ffcccc" stroke = "black"/>
</g>
<g>
<polygon points = "958.299, 371.657 924.476, 483.467 1000.000, 562.695 1000.000, 350.119 "
fill = "#ffcccc" stroke = "black"/>
</g>
<g>
<polygon points = "288.283, 895.241 315.040, 913.361 379.974, 889.110 401.890, 863.862 394.010, 794.920 265.139, 842.492 "
fill = "#ffcccc" stroke = "black"/>
</g>
<g>
<polygon points = "497.343, 77.343 497.362, 77.190 496.558, 51.255 399.186, 87.748 370.483, 157.066 445.147, 196.258 "
fill = "#ffcccc" stroke = "black"/>
</g>
<g>
<polygon points = "710.175, 70.532 717.441, 143.223 827.984, 135.798 836.730, 117.193 841.388, 46.526 "
fill = "#ffcccc" stroke = "black"/>
</g>
<g>
<polygon points = "307.888, 551.172 325.714, 553.348 411.899, 508.982 410.015, 432.818 279.515, 477.939 277.699, 479.593 "
fill = "#ffcccc" stroke = "black"/>
</g>
<g>
<polygon points = "120.337, 7.653 121.773, 12.525 227.909, 85.047 297.420, 46.619 307.803, 0.000 120.357, 0.000 "
fill = "#ffcccc" stroke = "black"/>
</g>
<g>
<polygon points = "567.536, 97.169 636.530, 213.816 676.847, 216.939 682.826, 214.836 703.425, 163.041 614.209, 74.380 "
fill = "#ffcccc" stroke = "black"/>
</g>
<g>
<polygon points = "823.774, 308.397 811.918, 338.314 824.732, 355.129 958.299, 371.657 1000.000, 350.119 1000.000, 340.529 953.372, 298.223 "
fill = "#ffcccc" stroke = "black"/>
</g>
<g>
<polygon points = "350.349, 738.164 233.324, 784.263 240.784, 819.267 265.139, 842.492 394.010, 794.920 396.296, 760.480 "
fill = "#ffcccc" stroke = "black"/>
</g>
<g>
<polygon points = "176.582, 747.879 115.024, 801.299 119.525, 860.209 144.591, 877.642 240.784, 819.267 233.324, 784.263 "
fill = "#ffcccc" stroke = "black"/>
</g>
<g>
<polygon points = "172.663, 261.190 141.367, 258.999 129.337, 262.340 141.665, 371.845 212.713, 385.289 237.675, 292.034 "
fill = "#ffcccc" stroke = "black"/>
</g>
<g>
<polygon points = "288.283, 895.241 265.139, 842.492 240.784, 819.267 144.591, 877.642 168.506, 944.295 "
fill = "#ffcccc" stroke = "black"/>
</g>
<g>
<polygon points = "0.000, 158.579 120.337, 7.653 120.357, 0.000 0.000, 0.000 "
fill = "#ffcccc" stroke = "black"/>
</g>
<g>
<polygon points = "60.484, 897.287 119.525, 860.209 115.024, 801.299 10.166, 780.936 0.000, 784.865 0.000, 847.555 "
fill = "#ffcccc" stroke = "black"/>
</g>
<g>
<polygon points = "682.787, 494.708 595.781, 583.894 611.844, 619.774 724.927, 604.133 713.762, 518.029 "
fill = "#ffcccc" stroke = "black"/>
</g>
<g>
<polygon points = "102.106, 151.012 191.326, 135.026 227.909, 85.047 121.773, 12.525 "
fill = "#ffcccc" stroke = "black"/>
</g>
<g>
<polygon points = "1.151, 309.315 91.427, 376.165 134.525, 397.629 141.665, 371.845 129.337, 262.340 123.950, 261.499 "
fill = "#ffcccc" stroke = "black"/>
</g>
<g>
<polygon points = "574.427, 668.604 604.829, 636.424 611.844, 619.774 595.781, 583.894 528.003, 540.086 514.335, 535.339 485.943, 581.300 546.008, 672.564 "
fill = "#ffcccc" stroke = "black"/>
</g>
<g>
<polygon points = "301.376, 640.393 455.655, 579.759 411.899, 508.982 325.714, 553.348 "
fill = "#ffcccc" stroke = "black"/>
</g>
<g>
<polygon points = "898.272, 669.768 886.923, 675.225 876.062, 720.643 892.493, 805.835 1000.000, 770.873 1000.000, 747.281 "
fill = "#ffcccc" stroke = "black"/>
</g>
<g>
<polygon points = "131.944, 533.313 130.958, 539.014 153.299, 564.469 277.699, 479.593 279.515, 477.939 282.885, 409.245 250.372, 409.060 "
fill = "#ffcccc" stroke = "black"/>
</g>
<g>
<polygon points = "487.714, 899.390 475.120, 872.404 401.890, 863.862 379.974, 889.110 399.890, 1000.000 433.896, 1000.000 "
fill = "#ffcccc" stroke = "black"/>
</g>
<g>
<polygon points = "827.984, 135.798 717.441, 143.223 703.425, 163.041 682.826, 214.836 741.601, 251.298 828.211, 159.651 "
fill = "#ffcccc" stroke = "black"/>
</g>
<g>
<polygon points = "923.869, 630.255 898.272, 669.768 1000.000, 747.281 1000.000, 563.271 "
fill = "#ffcccc" stroke = "black"/>
</g>
<g>
<polygon points = "638.464, 894.981 538.138, 919.459 606.022, 1000.000 703.727, 1000.000 "
fill = "#ffcccc" stroke = "black"/>
</g>
<g>
<polygon points = "799.653, 888.763 789.706, 817.391 707.329, 786.001 691.487, 875.818 762.130, 925.994 "
fill = "#ffcccc" stroke = "black"/>
</g>
<g>
<polygon points = "377.370, 255.347 334.534, 279.478 323.028, 319.263 343.704, 355.647 421.328, 404.095 449.647, 367.532 "
fill = "#ffcccc" stroke = "black"/>
</g>
<g>
<polygon points = "614.209, 74.380 703.425, 163.041 717.441, 143.223 710.175, 70.532 655.641, 0.000 615.198, 0.000 "
fill = "#ffcccc" stroke = "black"/>
</g>
<g>
<polygon points = "10.166, 780.936 111.547, 691.357 104.966, 660.817 0.582, 637.544 0.000, 637.643 0.000, 784.865 "
fill = "#ffcccc" stroke = "black"/>
</g>
<g>
<polygon points = "844.532, 200.659 828.211, 159.651 741.601, 251.298 787.644, 333.519 811.918, 338.314 823.774, 308.397 "
fill = "#ffcccc" stroke = "black"/>
</g>
<g>
<polygon points = "741.601, 251.298 682.826, 214.836 676.847, 216.939 668.901, 261.365 731.830, 384.444 787.644, 333.519 "
fill = "#ffcccc" stroke = "black"/>
</g>
<g>
<polygon points = "297.420, 46.619 319.700, 135.724 333.214, 153.379 370.483, 157.066 399.186, 87.748 329.885, 0.000 307.803, 0.000 "
fill = "#ffcccc" stroke = "black"/>
</g>
<g>
<polygon points = "334.534, 279.478 377.370, 255.347 448.043, 205.225 445.147, 196.258 370.483, 157.066 333.214, 153.379 309.131, 199.465 "
fill = "#ffcccc" stroke = "black"/>
</g>
<g>
<polygon points = "309.131, 199.465 333.214, 153.379 319.700, 135.724 193.159, 185.753 141.367, 258.999 172.663, 261.190 "
fill = "#ffcccc" stroke = "black"/>
</g>
<g>
<polygon points = "42.956, 488.411 91.427, 376.165 1.151, 309.315 0.000, 309.601 0.000, 458.558 "
fill = "#ffcccc" stroke = "black"/>
</g>
<g>
<polygon points = "168.506, 944.295 144.591, 877.642 119.525, 860.209 60.484, 897.287 104.783, 1000.000 157.666, 1000.000 "
fill = "#ffcccc" stroke = "black"/>
</g>
<g>
<polygon points = "10.166, 780.936 115.024, 801.299 176.582, 747.879 175.291, 722.308 111.547, 691.357 "
fill = "#ffcccc" stroke = "black"/>
</g>
<g>
<polygon points = "109.588, 542.563 130.958, 539.014 131.944, 533.313 134.525, 397.629 91.427, 376.165 42.956, 488.411 "
fill = "#ffcccc" stroke = "black"/>
</g>
<g>
<polygon points = "937.641, 127.340 999.247, 143.519 1000.000, 143.413 1000.000, 0.000 913.107, 0.000 "
fill = "#ffcccc" stroke = "black"/>
</g>
<g>
<polygon points = "884.297, 819.466 831.169, 875.112 857.931, 928.909 999.899, 933.528 "
fill = "#ffcccc" stroke = "black"/>
</g>
<g>
<polygon points = "307.888, 551.172 277.699, 479.593 153.299, 564.469 153.598, 598.292 177.031, 612.517 "
fill = "#ffcccc" stroke = "black"/>
</g>
<g>
<polygon points = "134.525, 397.629 131.944, 533.313 250.372, 409.060 212.713, 385.289 141.665, 371.845 "
fill = "#ffcccc" stroke = "black"/>
</g>
<g>
<polygon points = "499.698, 344.914 484.614, 325.235 449.647, 367.532 421.328, 404.095 422.383, 415.856 499.028, 499.420 529.217, 400.364 "
fill = "#ffcccc" stroke = "black"/>
</g>
<g>
<polygon points = "937.641, 127.340 836.730, 117.193 827.984, 135.798 828.211, 159.651 844.532, 200.659 912.180, 203.952 999.247, 143.519 "
fill = "#ffcccc" stroke = "black"/>
</g>
<g>
<polygon points = "595.781, 583.894 682.787, 494.708 668.391, 452.086 639.543, 449.576 528.003, 540.086 "
fill = "#ffcccc" stroke = "black"/>
</g>
<g>
<polygon points = "334.534, 279.478 309.131, 199.465 172.663, 261.190 237.675, 292.034 323.028, 319.263 "
fill = "#ffcccc" stroke = "black"/>
</g>
<g>
<polygon points = "709.994, 699.508 604.829, 636.424 574.427, 668.604 605.226, 727.062 700.795, 775.388 "
fill = "#ffcccc" stroke = "black"/>
</g>
<g>
<polygon points = "0.582, 637.544 109.588, 542.563 42.956, 488.411 0.000, 458.558 0.000, 637.643 "
fill = "#ffcccc" stroke = "black"/>
</g>
<g>
<polygon points = "399.186, 87.748 496.558, 51.255 504.659, 0.000 329.885, 0.000 "
fill = "#ffcccc" stroke = "black"/>
</g>
<g>
<polygon points = "569.775, 835.720 611.827, 838.337 605.226, 727.062 574.427, 668.604 546.008, 672.564 518.154, 699.119 "
fill = "#ffcccc" stroke = "black"/>
</g>
<g>
<polygon points = "465.210, 586.330 455.655, 579.759 301.376, 640.393 250.490, 686.224 250.761, 687.294 327.936, 713.368 "
fill = "#ffcccc" stroke = "black"/>
</g>
<g>
<polygon points = "668.901, 261.365 625.917, 307.686 629.556, 360.690 676.631, 434.640 731.220, 385.421 731.830, 384.444 "
fill = "#ffcccc" stroke = "black"/>
</g>
<g>
<polygon points = "301.376, 640.393 325.714, 553.348 307.888, 551.172 177.031, 612.517 250.490, 686.224 "
fill = "#ffcccc" stroke = "black"/>
</g>
<g>
<polygon points = "448.043, 205.225 377.370, 255.347 449.647, 367.532 484.614, 325.235 490.362, 268.369 "
fill = "#ffcccc" stroke = "black"/>
</g>
<g>
<polygon points = "831.169, 875.112 884.297, 819.466 892.493, 805.835 876.062, 720.643 827.127, 752.458 789.706, 817.391 799.653, 888.763 "
fill = "#ffcccc" stroke = "black"/>
</g>
<g>
<polygon points = "827.127, 752.458 741.583, 691.724 709.994, 699.508 700.795, 775.388 707.329, 786.001 789.706, 817.391 "
fill = "#ffcccc" stroke = "black"/>
</g>
<g>
<polygon points = "857.931, 928.909 831.169, 875.112 799.653, 888.763 762.130, 925.994 751.018, 1000.000 851.503, 1000.000 "
fill = "#ffcccc" stroke = "black"/>
</g>
<g>
<polygon points = "497.362, 77.190 497.343, 77.343 546.814, 220.480 636.530, 213.816 567.536, 97.169 "
fill = "#ffcccc" stroke = "black"/>
</g>
<g>
<polygon points = "709.994, 699.508 741.583, 691.724 780.802, 636.443 724.927, 604.133 611.844, 619.774 604.829, 636.424 "
fill = "#ffcccc" stroke = "black"/>
</g>
<g>
<polygon points = "924.476, 483.467 899.775, 470.144 883.193, 575.372 923.869, 630.255 1000.000, 563.271 1000.000, 562.695 "
fill = "#ffcccc" stroke = "black"/>
</g>
<g>
<polygon points = "176.582, 747.879 233.324, 784.263 350.349, 738.164 327.936, 713.368 250.761, 687.294 175.291, 722.308 "
fill = "#ffcccc" stroke = "black"/>
</g>
<g>
<polygon points = "538.138, 919.459 638.464, 894.981 648.398, 862.857 611.827, 838.337 569.775, 835.720 504.760, 852.689 475.120, 872.404 487.714, 899.390 "
fill = "#ffcccc" stroke = "black"/>
</g>
<g>
<polygon points = "496.558, 51.255 497.362, 77.190 567.536, 97.169 614.209, 74.380 615.198, 0.000 504.659, 0.000 "
fill = "#ffcccc" stroke = "black"/>
</g>
<g>
<polygon points = "899.775, 470.144 853.088, 433.968 792.594, 477.490 777.064, 505.192 788.181, 518.119 883.193, 575.372 "
fill = "#ffcccc" stroke = "black"/>
</g>
<g>
<polygon points = "710.175, 70.532 841.388, 46.526 858.376, 0.000 655.641, 0.000 "
fill = "#ffcccc" stroke = "black"/>
</g>
<g>
<polygon points = "465.210, 586.330 327.936, 713.368 350.349, 738.164 396.296, 760.480 422.719, 746.868 468.544, 586.334 "
fill = "#ffcccc" stroke = "black"/>
</g>
<g>
<polygon points = "60.484, 897.287 0.000, 847.555 0.000, 1000.000 104.783, 1000.000 "
fill = "#ffcccc" stroke = "black"/>
</g>
<g>
<polygon points = "538.138, 919.459 487.714, 899.390 433.896, 1000.000 606.022, 1000.000 "
fill = "#ffcccc" stroke = "black"/>
</g>
<g>
<polygon points = "780.802, 636.443 741.583, 691.724 827.127, 752.458 876.062, 720.643 886.923, 675.225 828.884, 649.318 "
fill = "#ffcccc" stroke = "black"/>
</g>
<g>
<polygon points = "546.814, 220.480 497.343, 77.343 445.147, 196.258 448.043, 205.225 490.362, 268.369 508.237, 257.299 "
fill = "#ffcccc" stroke = "black"/>
</g>
<g>
<polygon points = "0.582, 637.544 104.966, 660.817 153.598, 598.292 153.299, 564.469 130.958, 539.014 109.588, 542.563 "
fill = "#ffcccc" stroke = "black"/>
</g>
<g>
<polygon points = "504.760, 852.689 569.775, 835.720 518.154, 699.119 447.955, 739.620 "
fill = "#ffcccc" stroke = "black"/>
</g>
<g>
<polygon points = "0.000, 158.579 0.000, 176.728 65.406, 193.055 102.106, 151.012 121.773, 12.525 120.337, 7.653 "
fill = "#ffcccc" stroke = "black"/>
</g>
<g>
<polygon points = "315.040, 913.361 288.283, 895.241 168.506, 944.295 157.666, 1000.000 257.708, 1000.000 "
fill = "#ffcccc" stroke = "black"/>
</g>
<g>
<polygon points = "668.901, 261.365 676.847, 216.939 636.530, 213.816 546.814, 220.480 508.237, 257.299 625.917, 307.686 "
fill = "#ffcccc" stroke = "black"/>
</g>
<g>
<polygon points = "892.493, 805.835 884.297, 819.466 999.899, 933.528 1000.000, 933.574 1000.000, 770.873 "
fill = "#ffcccc" stroke = "black"/>
</g>
<g>
<polygon points = "319.700, 135.724 297.420, 46.619 227.909, 85.047 191.326, 135.026 193.159, 185.753 "
fill = "#ffcccc" stroke = "black"/>
</g>
<g>
<polygon points = "780.802, 636.443 828.884, 649.318 788.181, 518.119 777.064, 505.192 713.762, 518.029 724.927, 604.133 "
fill = "#ffcccc" stroke = "black"/>
</g>
<g>
<polygon points = "1.151, 309.315 123.950, 261.499 65.406, 193.055 0.000, 176.728 0.000, 309.601 "
fill = "#ffcccc" stroke = "black"/>
</g>
<g>
<polygon points = "682.787, 494.708 713.762, 518.029 777.064, 505.192 792.594, 477.490 731.220, 385.421 676.631, 434.640 668.391, 452.086 "
fill = "#ffcccc" stroke = "black"/>
</g>
<g>
<polygon points = "844.532, 200.659 823.774, 308.397 953.372, 298.223 912.180, 203.952 "
fill = "#ffcccc" stroke = "black"/>
</g>
</svg>
